<svg width="195" height="64" viewBox="0 0 195 64" fill="none" xmlns="http://www.w3.org/2000/svg">
<g opacity="0.4" clip-path="url(#clip0_4854_384)">
<path fill-rule="evenodd" clip-rule="evenodd" d="M57.3446 22.696V26.5046C60.9521 27.0368 63.834 29.6512 64.5732 33.0626C65.3125 36.474 63.7537 39.9647 60.6633 41.8188C57.5729 43.6728 53.6008 43.5 50.6998 41.3855L47.4561 44.481C47.5402 44.7322 47.5848 44.9938 47.5886 45.2574C47.5886 46.3559 46.8951 47.3464 45.8315 47.7668C44.768 48.1872 43.5437 47.9548 42.7297 47.178C41.9157 46.4012 41.6722 45.2328 42.1127 44.2179C42.5533 43.203 43.5911 42.5411 44.7423 42.5411C45.0185 42.545 45.2926 42.5876 45.5558 42.6675L48.8348 39.5384C46.7674 36.7319 46.7141 33.0028 48.7002 30.1434L37.9258 22.1389C37.4059 22.428 36.8155 22.5813 36.2139 22.5834C34.3012 22.5812 32.7526 21.0998 32.7549 19.2746C32.7572 17.4493 34.3095 15.9715 36.2221 15.9736C38.1348 15.9758 39.6834 17.4572 39.6811 19.2825C39.6767 19.561 39.6349 19.8378 39.5569 20.1062L50.5156 28.243C51.711 27.3256 53.1393 26.7259 54.6557 26.5046V22.696C53.579 22.2162 52.889 21.1868 52.8837 20.0529V19.964C52.8882 18.3478 54.26 17.0388 55.9536 17.0344H56.0466C57.7402 17.0388 59.112 18.3478 59.1165 19.964V20.0529C59.1113 21.1868 58.4212 22.2162 57.3446 22.696ZM51.5128 34.7499C51.5128 37.1151 53.522 39.0326 56.0005 39.0326C58.4792 39.0326 60.4884 37.1151 60.4884 34.7499C60.4884 32.3846 58.4792 30.4671 56.0005 30.4671C53.522 30.4671 51.5128 32.3846 51.5128 34.7499Z" fill="#111553" style="fill:#111553;fill:color(display-p3 0.0667 0.0824 0.3255);fill-opacity:1;"/>
</g>
<path opacity="0.4" d="M86.9335 40V24.6H89.3535V40H86.9335ZM77.1435 40V24.6H79.5635V40H77.1435ZM79.1895 33.136V31.156H87.3955V33.136H79.1895ZM95.6192 40.264C94.4019 40.264 93.4265 39.8533 92.6932 39.032C91.9599 38.196 91.5932 36.964 91.5932 35.336V29.088H94.0132V35.094C94.0132 36.1207 94.2112 36.898 94.6072 37.426C95.0179 37.9393 95.5899 38.196 96.3232 38.196C97.1739 38.196 97.8412 37.8953 98.3252 37.294C98.8092 36.6927 99.0512 35.8347 99.0512 34.72V29.088H101.471V40H99.0512V38.306C98.7285 38.922 98.2739 39.406 97.6872 39.758C97.1152 40.0953 96.4259 40.264 95.6192 40.264ZM109.789 40.264C108.938 40.264 108.19 40.0953 107.545 39.758C106.9 39.4207 106.386 38.9587 106.005 38.372V40H103.585V24.16H106.005V30.76C106.357 30.2467 106.841 29.7993 107.457 29.418C108.073 29.022 108.85 28.824 109.789 28.824C110.845 28.824 111.776 29.0733 112.583 29.572C113.39 30.0707 114.02 30.7527 114.475 31.618C114.944 32.4833 115.179 33.466 115.179 34.566C115.179 35.6513 114.944 36.6267 114.475 37.492C114.02 38.3573 113.39 39.0393 112.583 39.538C111.776 40.022 110.845 40.264 109.789 40.264ZM109.349 38.152C110.009 38.152 110.588 37.998 111.087 37.69C111.6 37.382 111.996 36.964 112.275 36.436C112.568 35.8933 112.715 35.27 112.715 34.566C112.715 33.8473 112.568 33.2167 112.275 32.674C111.996 32.1167 111.6 31.6913 111.087 31.398C110.588 31.09 110.009 30.936 109.349 30.936C108.689 30.936 108.102 31.09 107.589 31.398C107.09 31.6913 106.694 32.1093 106.401 32.652C106.122 33.1947 105.983 33.8253 105.983 34.544C105.983 35.2627 106.122 35.8933 106.401 36.436C106.694 36.964 107.09 37.382 107.589 37.69C108.102 37.998 108.689 38.152 109.349 38.152ZM122.539 40.264C121.791 40.264 121.065 40.1687 120.361 39.978C119.657 39.7727 119.019 39.4573 118.447 39.032C117.875 38.6067 117.406 38.064 117.039 37.404C116.673 36.744 116.453 35.9593 116.379 35.05H118.667C118.77 35.8127 119.012 36.4287 119.393 36.898C119.775 37.3527 120.244 37.6827 120.801 37.888C121.359 38.0787 121.945 38.174 122.561 38.174C123.177 38.174 123.735 38.086 124.233 37.91C124.732 37.7193 125.128 37.4407 125.421 37.074C125.715 36.6927 125.861 36.2233 125.861 35.666C125.861 35.1527 125.715 34.698 125.421 34.302C125.143 33.906 124.578 33.6347 123.727 33.488L120.867 32.96C119.694 32.74 118.755 32.256 118.051 31.508C117.347 30.76 116.995 29.8727 116.995 28.846C116.995 27.8927 117.237 27.086 117.721 26.426C118.22 25.7513 118.873 25.238 119.679 24.886C120.501 24.5193 121.395 24.336 122.363 24.336C123.375 24.336 124.277 24.512 125.069 24.864C125.876 25.216 126.529 25.744 127.027 26.448C127.541 27.1373 127.849 28.0247 127.951 29.11H125.619C125.531 28.45 125.333 27.922 125.025 27.526C124.717 27.13 124.336 26.844 123.881 26.668C123.427 26.492 122.928 26.404 122.385 26.404C121.887 26.404 121.395 26.4847 120.911 26.646C120.427 26.8073 120.031 27.064 119.723 27.416C119.43 27.7533 119.283 28.2007 119.283 28.758C119.283 29.2713 119.474 29.7187 119.855 30.1C120.237 30.4667 120.794 30.716 121.527 30.848L124.189 31.354C125.465 31.5887 126.448 32.0507 127.137 32.74C127.841 33.4293 128.193 34.3827 128.193 35.6C128.193 36.3773 128.032 37.0593 127.709 37.646C127.387 38.218 126.954 38.702 126.411 39.098C125.869 39.4793 125.26 39.7727 124.585 39.978C123.925 40.1687 123.243 40.264 122.539 40.264ZM130.183 44.84V29.088H132.603V30.76C132.955 30.2467 133.439 29.7993 134.055 29.418C134.671 29.022 135.448 28.824 136.387 28.824C137.443 28.824 138.374 29.0733 139.181 29.572C139.987 30.0707 140.618 30.7527 141.073 31.618C141.542 32.4833 141.777 33.466 141.777 34.566C141.777 35.6513 141.542 36.6267 141.073 37.492C140.618 38.3573 139.987 39.0393 139.181 39.538C138.374 40.022 137.443 40.264 136.387 40.264C135.536 40.264 134.788 40.0953 134.143 39.758C133.497 39.4207 132.984 38.9587 132.603 38.372V44.84H130.183ZM135.947 38.152C136.607 38.152 137.186 37.998 137.685 37.69C138.198 37.382 138.594 36.964 138.873 36.436C139.166 35.8933 139.313 35.27 139.313 34.566C139.313 33.8473 139.166 33.2167 138.873 32.674C138.594 32.1167 138.198 31.6913 137.685 31.398C137.186 31.09 136.607 30.936 135.947 30.936C135.287 30.936 134.7 31.09 134.187 31.398C133.688 31.6913 133.292 32.1093 132.999 32.652C132.72 33.1947 132.581 33.8253 132.581 34.544C132.581 35.2627 132.72 35.8933 132.999 36.436C133.292 36.964 133.688 37.382 134.187 37.69C134.7 37.998 135.287 38.152 135.947 38.152ZM148.675 40.264C147.59 40.264 146.614 40.0293 145.749 39.56C144.884 39.076 144.194 38.4013 143.681 37.536C143.182 36.6707 142.933 35.6733 142.933 34.544C142.933 33.4 143.182 32.4027 143.681 31.552C144.194 30.6867 144.884 30.0193 145.749 29.55C146.629 29.066 147.604 28.824 148.675 28.824C149.775 28.824 150.75 29.066 151.601 29.55C152.466 30.0193 153.148 30.6867 153.647 31.552C154.16 32.4027 154.417 33.4 154.417 34.544C154.417 35.6733 154.16 36.6707 153.647 37.536C153.148 38.4013 152.466 39.076 151.601 39.56C150.736 40.0293 149.76 40.264 148.675 40.264ZM148.653 38.174C149.254 38.174 149.797 38.042 150.281 37.778C150.78 37.4993 151.176 37.096 151.469 36.568C151.762 36.0253 151.909 35.3507 151.909 34.544C151.909 33.7373 151.762 33.07 151.469 32.542C151.176 31.9993 150.78 31.596 150.281 31.332C149.797 31.0533 149.269 30.914 148.697 30.914C148.11 30.914 147.568 31.0533 147.069 31.332C146.57 31.596 146.174 31.9993 145.881 32.542C145.588 33.07 145.441 33.7373 145.441 34.544C145.441 35.3507 145.588 36.0253 145.881 36.568C146.174 37.096 146.563 37.4993 147.047 37.778C147.546 38.042 148.081 38.174 148.653 38.174ZM160.035 40C159.36 40 158.788 39.9193 158.319 39.758C157.849 39.5967 157.497 39.2887 157.263 38.834C157.028 38.3793 156.911 37.7193 156.911 36.854V31.134L155.041 31.134V29.088L156.911 29.088V26.294H159.331V29.088H162.257V31.134H159.331V36.524C159.331 36.9493 159.367 37.2647 159.441 37.47C159.529 37.6607 159.675 37.7853 159.881 37.844C160.101 37.9027 160.416 37.932 160.827 37.932H162.147V40H160.035Z" fill="#111553" style="fill:#111553;fill:color(display-p3 0.0667 0.0824 0.3255);fill-opacity:1;"/>
<defs>
<clipPath id="clip0_4854_384">
<rect width="31.9992" height="32" fill="white" style="fill:white;fill-opacity:1;" transform="translate(32.7549 16)"/>
</clipPath>
</defs>
</svg>
