<svg width="251" height="64" viewBox="0 0 251 64" fill="none" xmlns="http://www.w3.org/2000/svg">
<g opacity="0.4" clip-path="url(#clip0_4854_426)">
<path d="M63.8749 16.0703C64.0279 15.9173 64.2953 16.0318 64.2387 16.2426V47.7681C64.2387 47.8838 64.1423 47.979 64.0279 47.979H32.5203C32.2709 47.979 32.1565 47.673 32.3288 47.5007L45.4337 34.4524V43.4628C45.4337 43.5785 45.5481 43.6929 45.6818 43.6929H54.1369C57.2171 43.6929 58.8047 41.7993 58.8047 39.4275C58.8047 37.7447 57.829 36.31 56.4521 35.774C56.2413 35.6981 56.2413 35.4307 56.4329 35.3536C57.6194 34.8175 58.7289 33.6129 58.7289 31.9674C58.7289 29.8823 56.9304 27.9694 53.8888 27.9694H51.9373L63.8749 16.0703ZM53.2768 37.1315C54.5971 37.1315 55.3234 37.935 55.3234 38.93C55.3234 40.078 54.5585 40.7285 53.2768 40.7285H49.1065C48.9715 40.7285 48.8764 40.6333 48.8584 40.4804V37.3616C48.8584 37.2459 48.9728 37.1315 49.1065 37.1315H53.2768ZM53.1431 30.9146C54.2911 30.9146 55.0175 31.6036 55.0175 32.5601C55.0175 33.5744 54.2911 34.2056 53.1431 34.2056H49.1065C48.9715 34.2056 48.8764 34.1092 48.8584 33.9755V31.1447C48.8584 31.029 48.9728 30.9146 49.1065 30.9146H53.1431Z" fill="#111553" style="fill:#111553;fill:color(display-p3 0.0667 0.0824 0.3255);fill-opacity:1;"/>
</g>
<path opacity="0.4" d="M76.6835 40V24.6H82.6455C83.7162 24.6 84.6109 24.7687 85.3295 25.106C86.0482 25.4433 86.5909 25.9127 86.9575 26.514C87.3242 27.1007 87.5075 27.7753 87.5075 28.538C87.5075 29.3153 87.3389 29.968 87.0015 30.496C86.6642 31.024 86.2169 31.4273 85.6595 31.706C85.1169 31.9847 84.5302 32.1607 83.8995 32.234L84.2295 31.992C84.9189 32.0067 85.5349 32.19 86.0775 32.542C86.6349 32.8793 87.0749 33.334 87.3975 33.906C87.7202 34.478 87.8815 35.1087 87.8815 35.798C87.8815 36.59 87.6835 37.3087 87.2875 37.954C86.9062 38.5847 86.3415 39.0833 85.5935 39.45C84.8455 39.8167 83.9289 40 82.8435 40H76.6835ZM79.1035 38.02H82.5355C83.4449 38.02 84.1489 37.8073 84.6475 37.382C85.1609 36.942 85.4175 36.3333 85.4175 35.556C85.4175 34.7787 85.1535 34.1627 84.6255 33.708C84.1122 33.2533 83.3935 33.026 82.4695 33.026H79.1035V38.02ZM79.1035 31.178H82.3375C83.2029 31.178 83.8702 30.9727 84.3395 30.562C84.8089 30.1513 85.0435 29.5867 85.0435 28.868C85.0435 28.164 84.8162 27.6067 84.3615 27.196C83.9069 26.7707 83.2175 26.558 82.2935 26.558H79.1035V31.178ZM89.6125 40V29.088H92.0325V40H89.6125ZM89.5465 27.152V24.534H92.1205V27.152H89.5465ZM99.9506 45.104C98.9973 45.104 98.1099 44.9427 97.2886 44.62C96.4673 44.312 95.7779 43.8353 95.2206 43.19C94.6633 42.5593 94.3186 41.76 94.1866 40.792H96.5846C96.7606 41.4667 97.1493 42.002 97.7506 42.398C98.3519 42.8087 99.0706 43.014 99.9066 43.014C100.523 43.014 101.087 42.882 101.601 42.618C102.114 42.354 102.517 41.958 102.811 41.43C103.119 40.902 103.273 40.2347 103.273 39.428V37.976C103.053 38.3573 102.759 38.7093 102.393 39.032C102.026 39.3547 101.586 39.6187 101.073 39.824C100.559 40.0293 99.9726 40.132 99.3126 40.132C98.2859 40.132 97.3546 39.8827 96.5186 39.384C95.6973 38.8853 95.0446 38.2107 94.5606 37.36C94.0766 36.4947 93.8346 35.5267 93.8346 34.456C93.8346 33.3853 94.0766 32.4247 94.5606 31.574C95.0446 30.7233 95.6973 30.056 96.5186 29.572C97.3546 29.0733 98.2933 28.824 99.3346 28.824C100.229 28.824 101.014 29.0147 101.689 29.396C102.378 29.7773 102.906 30.2467 103.273 30.804V29.088H105.693V39.34C105.693 40.572 105.436 41.6133 104.923 42.464C104.409 43.3293 103.72 43.982 102.855 44.422C101.989 44.8767 101.021 45.104 99.9506 45.104ZM99.7746 38.02C100.449 38.02 101.043 37.866 101.557 37.558C102.07 37.25 102.473 36.832 102.767 36.304C103.075 35.7613 103.229 35.1527 103.229 34.478C103.229 33.774 103.075 33.158 102.767 32.63C102.473 32.102 102.07 31.6913 101.557 31.398C101.043 31.09 100.449 30.936 99.7746 30.936C99.0999 30.936 98.4986 31.09 97.9706 31.398C97.4573 31.6913 97.0466 32.102 96.7386 32.63C96.4453 33.158 96.2986 33.7667 96.2986 34.456C96.2986 35.1453 96.4453 35.7613 96.7386 36.304C97.0466 36.832 97.4573 37.25 97.9706 37.558C98.4986 37.866 99.0999 38.02 99.7746 38.02ZM114.913 40.264C113.388 40.264 112.068 39.934 110.953 39.274C109.838 38.5993 108.98 37.668 108.379 36.48C107.792 35.2773 107.499 33.8913 107.499 32.322C107.499 30.738 107.792 29.352 108.379 28.164C108.98 26.9613 109.838 26.0227 110.953 25.348C112.068 24.6733 113.388 24.336 114.913 24.336C116.732 24.336 118.213 24.7833 119.357 25.678C120.501 26.558 121.227 27.7973 121.535 29.396H118.851C118.661 28.5013 118.228 27.7973 117.553 27.284C116.893 26.7707 116.006 26.514 114.891 26.514C113.879 26.514 113.006 26.7487 112.273 27.218C111.54 27.6727 110.968 28.34 110.557 29.22C110.161 30.0853 109.963 31.1193 109.963 32.322C109.963 33.5247 110.161 34.5587 110.557 35.424C110.968 36.2747 111.54 36.9347 112.273 37.404C113.006 37.8733 113.879 38.108 114.891 38.108C116.006 38.108 116.893 37.8587 117.553 37.36C118.213 36.8613 118.653 36.15 118.873 35.226H121.557C121.249 36.8247 120.516 38.064 119.357 38.944C118.213 39.824 116.732 40.264 114.913 40.264ZM128.385 40.264C127.3 40.264 126.324 40.0293 125.459 39.56C124.594 39.076 123.904 38.4013 123.391 37.536C122.892 36.6707 122.643 35.6733 122.643 34.544C122.643 33.4 122.892 32.4027 123.391 31.552C123.904 30.6867 124.594 30.0193 125.459 29.55C126.339 29.066 127.314 28.824 128.385 28.824C129.485 28.824 130.46 29.066 131.311 29.55C132.176 30.0193 132.858 30.6867 133.357 31.552C133.87 32.4027 134.127 33.4 134.127 34.544C134.127 35.6733 133.87 36.6707 133.357 37.536C132.858 38.4013 132.176 39.076 131.311 39.56C130.446 40.0293 129.47 40.264 128.385 40.264ZM128.363 38.174C128.964 38.174 129.507 38.042 129.991 37.778C130.49 37.4993 130.886 37.096 131.179 36.568C131.472 36.0253 131.619 35.3507 131.619 34.544C131.619 33.7373 131.472 33.07 131.179 32.542C130.886 31.9993 130.49 31.596 129.991 31.332C129.507 31.0533 128.979 30.914 128.407 30.914C127.82 30.914 127.278 31.0533 126.779 31.332C126.28 31.596 125.884 31.9993 125.591 32.542C125.298 33.07 125.151 33.7373 125.151 34.544C125.151 35.3507 125.298 36.0253 125.591 36.568C125.884 37.096 126.273 37.4993 126.757 37.778C127.256 38.042 127.791 38.174 128.363 38.174ZM135.847 40V29.088H138.267V30.518C138.619 29.99 139.081 29.5793 139.653 29.286C140.24 28.978 140.892 28.824 141.611 28.824C142.462 28.824 143.188 28.9927 143.789 29.33C144.405 29.6673 144.882 30.1733 145.219 30.848C145.615 30.2173 146.143 29.726 146.803 29.374C147.478 29.0073 148.211 28.824 149.003 28.824C150.367 28.824 151.43 29.242 152.193 30.078C152.97 30.8993 153.359 32.124 153.359 33.752V40H150.961V33.994C150.961 32.9673 150.756 32.1973 150.345 31.684C149.949 31.156 149.355 30.892 148.563 30.892C147.756 30.892 147.096 31.1927 146.583 31.794C146.084 32.3953 145.835 33.2533 145.835 34.368V40H143.415V33.994C143.415 32.9673 143.21 32.1973 142.799 31.684C142.388 31.156 141.787 30.892 140.995 30.892C140.203 30.892 139.55 31.1927 139.037 31.794C138.524 32.3953 138.267 33.2533 138.267 34.368V40H135.847ZM155.634 40V29.088H158.054V30.518C158.406 29.99 158.868 29.5793 159.44 29.286C160.027 28.978 160.679 28.824 161.398 28.824C162.249 28.824 162.975 28.9927 163.576 29.33C164.192 29.6673 164.669 30.1733 165.006 30.848C165.402 30.2173 165.93 29.726 166.59 29.374C167.265 29.0073 167.998 28.824 168.79 28.824C170.154 28.824 171.217 29.242 171.98 30.078C172.757 30.8993 173.146 32.124 173.146 33.752V40H170.748V33.994C170.748 32.9673 170.543 32.1973 170.132 31.684C169.736 31.156 169.142 30.892 168.35 30.892C167.543 30.892 166.883 31.1927 166.37 31.794C165.871 32.3953 165.622 33.2533 165.622 34.368V40H163.202V33.994C163.202 32.9673 162.997 32.1973 162.586 31.684C162.175 31.156 161.574 30.892 160.782 30.892C159.99 30.892 159.337 31.1927 158.824 31.794C158.311 32.3953 158.054 33.2533 158.054 34.368V40H155.634ZM180.437 40.264C179.352 40.264 178.391 40.0293 177.555 39.56C176.734 39.076 176.081 38.4087 175.597 37.558C175.128 36.7073 174.893 35.7173 174.893 34.588C174.893 33.4587 175.128 32.4613 175.597 31.596C176.066 30.716 176.719 30.034 177.555 29.55C178.391 29.066 179.359 28.824 180.459 28.824C181.53 28.824 182.461 29.0587 183.253 29.528C184.06 29.9973 184.683 30.628 185.123 31.42C185.563 32.212 185.783 33.0993 185.783 34.082C185.783 34.2287 185.783 34.39 185.783 34.566C185.783 34.7273 185.768 34.9107 185.739 35.116H176.675V33.488H183.363C183.319 32.6667 183.018 32.014 182.461 31.53C181.918 31.046 181.251 30.804 180.459 30.804C179.887 30.804 179.359 30.936 178.875 31.2C178.391 31.4493 178.002 31.8233 177.709 32.322C177.416 32.806 177.269 33.4293 177.269 34.192V34.808C177.269 35.5413 177.416 36.172 177.709 36.7C178.002 37.2133 178.384 37.602 178.853 37.866C179.337 38.13 179.865 38.262 180.437 38.262C181.082 38.262 181.625 38.1153 182.065 37.822C182.505 37.5287 182.828 37.1327 183.033 36.634H185.475C185.284 37.3233 184.954 37.9467 184.485 38.504C184.03 39.0467 183.458 39.4793 182.769 39.802C182.094 40.11 181.317 40.264 180.437 40.264ZM187.645 40V29.088H190.065V30.782C190.329 30.2247 190.681 29.792 191.121 29.484C191.561 29.1613 192.074 29 192.661 29H194.179V31.178H192.419C191.92 31.178 191.495 31.3173 191.143 31.596C190.791 31.86 190.52 32.278 190.329 32.85C190.153 33.422 190.065 34.148 190.065 35.028V40H187.645ZM200.01 40.264C198.925 40.264 197.957 40.022 197.106 39.538C196.27 39.054 195.61 38.3867 195.126 37.536C194.642 36.6707 194.4 35.6733 194.4 34.544C194.4 33.4147 194.642 32.4247 195.126 31.574C195.61 30.7087 196.27 30.034 197.106 29.55C197.957 29.066 198.925 28.824 200.01 28.824C201.36 28.824 202.496 29.176 203.42 29.88C204.344 30.584 204.931 31.5447 205.18 32.762H202.672C202.526 32.1753 202.21 31.7207 201.726 31.398C201.242 31.0607 200.663 30.892 199.988 30.892C199.446 30.892 198.932 31.0387 198.448 31.332C197.979 31.6107 197.598 32.0213 197.304 32.564C197.026 33.092 196.886 33.752 196.886 34.544C196.886 35.3213 197.026 35.9887 197.304 36.546C197.598 37.0887 197.979 37.4993 198.448 37.778C198.932 38.0567 199.446 38.196 199.988 38.196C200.663 38.196 201.242 38.0347 201.726 37.712C202.21 37.3893 202.526 36.9273 202.672 36.326H205.18C204.946 37.4993 204.359 38.4527 203.42 39.186C202.496 39.9047 201.36 40.264 200.01 40.264ZM212.019 40.264C210.934 40.264 209.973 40.0293 209.137 39.56C208.316 39.076 207.663 38.4087 207.179 37.558C206.71 36.7073 206.475 35.7173 206.475 34.588C206.475 33.4587 206.71 32.4613 207.179 31.596C207.648 30.716 208.301 30.034 209.137 29.55C209.973 29.066 210.941 28.824 212.041 28.824C213.112 28.824 214.043 29.0587 214.835 29.528C215.642 29.9973 216.265 30.628 216.705 31.42C217.145 32.212 217.365 33.0993 217.365 34.082C217.365 34.2287 217.365 34.39 217.365 34.566C217.365 34.7273 217.35 34.9107 217.321 35.116H208.257V33.488H214.945C214.901 32.6667 214.6 32.014 214.043 31.53C213.5 31.046 212.833 30.804 212.041 30.804C211.469 30.804 210.941 30.936 210.457 31.2C209.973 31.4493 209.584 31.8233 209.291 32.322C208.998 32.806 208.851 33.4293 208.851 34.192V34.808C208.851 35.5413 208.998 36.172 209.291 36.7C209.584 37.2133 209.966 37.602 210.435 37.866C210.919 38.13 211.447 38.262 212.019 38.262C212.664 38.262 213.207 38.1153 213.647 37.822C214.087 37.5287 214.41 37.1327 214.615 36.634H217.057C216.866 37.3233 216.536 37.9467 216.067 38.504C215.612 39.0467 215.04 39.4793 214.351 39.802C213.676 40.11 212.899 40.264 212.019 40.264Z" fill="#111553" style="fill:#111553;fill:color(display-p3 0.0667 0.0824 0.3255);fill-opacity:1;"/>
<defs>
<clipPath id="clip0_4854_426">
<rect width="31.9992" height="32" fill="white" style="fill:white;fill-opacity:1;" transform="translate(32.2461 16)"/>
</clipPath>
</defs>
</svg>
