<svg width="174" height="64" viewBox="0 0 174 64" fill="none" xmlns="http://www.w3.org/2000/svg">
<g opacity="0.4">
<path d="M57.698 27.8063C57.6802 27.7707 57.6624 27.7529 57.6267 27.7173C55.8816 25.7585 53.4064 22.9805 51.6257 21.0039C51.0736 20.4162 50.5216 19.8286 50.0052 19.2231C49.8805 19.0807 49.7737 18.9382 49.649 18.7958C49.5421 18.6889 49.4887 18.6177 49.4887 18.6177H49.5066C48.9011 17.9054 48.4203 17.1041 48.0819 16.2493L47.9929 16.0534C47.9929 16.0356 47.9751 16.0356 47.9573 16.0178C47.9395 16.0178 47.9039 16 47.8861 16H47.8683C47.8327 16 47.8149 16.0178 47.797 16.0178C47.7792 16.0356 47.7792 16.0356 47.7614 16.0534L47.6723 16.2493C47.3162 17.1041 46.8354 17.9054 46.2478 18.6177H46.2656C46.2656 18.6177 46.2122 18.6889 46.1053 18.7958C45.9806 18.9382 45.8738 19.0807 45.7492 19.2231C45.215 19.8286 44.6807 20.4162 44.1287 21.0039C42.3479 22.9805 39.8549 25.7585 38.1098 27.7173C38.092 27.7529 38.0742 27.7707 38.0385 27.8063C31.4498 36.5854 38.6084 43.744 38.6084 43.744H38.5906C40.7097 46.2014 43.7191 47.7151 46.9422 47.9465C47.2272 47.9822 47.5299 48 47.8504 48H47.8683C48.171 48 48.4737 47.9822 48.7764 47.9465C52.0174 47.7151 55.0091 46.2014 57.1282 43.744H57.1103C57.1282 43.744 64.2867 36.5854 57.698 27.8063ZM42.3479 33.9855L42.1877 34.2348L42.1698 34.2527C40.959 35.7129 40.2467 37.2799 40.0152 38.8291C39.9796 39.0251 39.8015 39.1497 39.6234 39.1141C39.4988 39.0963 39.4097 39.0072 39.3563 38.9004C39.0358 38.1525 38.8221 37.3689 38.7152 36.5676C38.3235 33.7362 39.1782 31.261 40.9946 29.1419C41.7247 28.3049 42.4548 27.468 43.1849 26.6311C43.3095 26.4886 43.5233 26.4708 43.6657 26.5954C43.6835 26.6132 43.6835 26.6132 43.7013 26.6311C44.2889 27.3077 45.0547 28.1803 45.9094 29.1775C46.0163 29.3022 46.0163 29.498 45.9094 29.6405C44.7342 31.0473 43.4876 32.5431 42.3658 33.9677L42.3479 33.9855ZM52.4804 41.3222C51.8037 43.1029 50.4681 44.1714 48.5805 44.4741C45.8916 44.8837 43.3807 43.0495 42.9712 40.3606C42.9712 40.325 42.9712 40.3072 42.9534 40.2715C42.7397 38.7579 43.2027 37.4224 44.1821 36.2827C45.3218 34.9471 47.8327 31.8486 47.8683 31.7952C47.9217 31.8486 50.5928 35.1786 51.59 36.3539C52.8543 37.8319 53.1571 39.5237 52.4804 41.3222ZM56.4514 38.5264C56.4336 38.5798 56.398 38.6511 56.3802 38.7045C56.309 38.8825 56.1131 38.9716 55.935 38.9004C55.8282 38.847 55.7392 38.7579 55.7213 38.6333C55.472 37.1374 54.7597 35.6416 53.6022 34.2348L53.5844 34.217L53.4776 34.0567L53.4064 33.9677C52.4804 32.7924 47.5834 27.0585 45.4464 24.5476C45.3396 24.4229 45.3396 24.2271 45.4464 24.0846C46.1587 23.3011 46.871 22.5175 47.5655 21.7162C47.6902 21.5737 47.9039 21.5737 48.0463 21.6984L48.0642 21.7162C48.3847 22.0545 48.6874 22.3929 48.9901 22.749C50.9311 24.9215 52.89 27.0585 54.7776 29.2488C57.1637 32.0089 57.7158 35.1786 56.4514 38.5264Z" fill="#111553" style="fill:#111553;fill:color(display-p3 0.0667 0.0824 0.3255);fill-opacity:1;"/>
</g>
<path opacity="0.4" d="M76.9892 40V24.6H82.0272C83.8312 24.6 85.3125 24.9153 86.4712 25.546C87.6445 26.1767 88.5099 27.0713 89.0672 28.23C89.6392 29.374 89.9252 30.738 89.9252 32.322C89.9252 33.8767 89.6392 35.2333 89.0672 36.392C88.5099 37.536 87.6445 38.4233 86.4712 39.054C85.3125 39.6847 83.8312 40 82.0272 40H76.9892ZM79.4092 37.954H81.9172C83.2959 37.954 84.3885 37.7267 85.1952 37.272C86.0019 36.8173 86.5812 36.172 86.9332 35.336C87.2852 34.5 87.4612 33.4953 87.4612 32.322C87.4612 31.1487 87.2852 30.1367 86.9332 29.286C86.5812 28.4353 86.0019 27.7827 85.1952 27.328C84.3885 26.8733 83.2959 26.646 81.9172 26.646H79.4092V37.954ZM91.8297 40V29.088H94.2497V30.782C94.5137 30.2247 94.8657 29.792 95.3057 29.484C95.7457 29.1613 96.2591 29 96.8457 29H98.3637V31.178H96.6037C96.1051 31.178 95.6797 31.3173 95.3277 31.596C94.9757 31.86 94.7044 32.278 94.5137 32.85C94.3377 33.422 94.2497 34.148 94.2497 35.028V40H91.8297ZM104.059 40.264C102.841 40.264 101.866 39.8533 101.133 39.032C100.399 38.196 100.033 36.964 100.033 35.336V29.088H102.453V35.094C102.453 36.1207 102.651 36.898 103.047 37.426C103.457 37.9393 104.029 38.196 104.763 38.196C105.613 38.196 106.281 37.8953 106.765 37.294C107.249 36.6927 107.491 35.8347 107.491 34.72V29.088H109.911V40H107.491V38.306C107.168 38.922 106.713 39.406 106.127 39.758C105.555 40.0953 104.865 40.264 104.059 40.264ZM112.025 44.84V29.088H114.445V30.76C114.797 30.2467 115.281 29.7993 115.897 29.418C116.513 29.022 117.29 28.824 118.229 28.824C119.285 28.824 120.216 29.0733 121.023 29.572C121.829 30.0707 122.46 30.7527 122.915 31.618C123.384 32.4833 123.619 33.466 123.619 34.566C123.619 35.6513 123.384 36.6267 122.915 37.492C122.46 38.3573 121.829 39.0393 121.023 39.538C120.216 40.022 119.285 40.264 118.229 40.264C117.378 40.264 116.63 40.0953 115.985 39.758C115.339 39.4207 114.826 38.9587 114.445 38.372V44.84H112.025ZM117.789 38.152C118.449 38.152 119.028 37.998 119.527 37.69C120.04 37.382 120.436 36.964 120.715 36.436C121.008 35.8933 121.155 35.27 121.155 34.566C121.155 33.8473 121.008 33.2167 120.715 32.674C120.436 32.1167 120.04 31.6913 119.527 31.398C119.028 31.09 118.449 30.936 117.789 30.936C117.129 30.936 116.542 31.09 116.029 31.398C115.53 31.6913 115.134 32.1093 114.841 32.652C114.562 33.1947 114.423 33.8253 114.423 34.544C114.423 35.2627 114.562 35.8933 114.841 36.436C115.134 36.964 115.53 37.382 116.029 37.69C116.542 37.998 117.129 38.152 117.789 38.152ZM128.674 40.264C127.823 40.264 127.097 40.1173 126.496 39.824C125.909 39.516 125.462 39.1127 125.154 38.614C124.861 38.1153 124.714 37.5727 124.714 36.986C124.714 35.8273 125.132 34.9327 125.968 34.302C126.804 33.6713 127.904 33.356 129.268 33.356C129.884 33.356 130.434 33.4073 130.918 33.51C131.402 33.598 131.798 33.6933 132.106 33.796V33.29C132.106 32.4393 131.871 31.8087 131.402 31.398C130.947 30.9873 130.339 30.782 129.576 30.782C129.004 30.782 128.498 30.8993 128.058 31.134C127.618 31.3687 127.339 31.7793 127.222 32.366H124.89C124.978 31.574 125.242 30.9213 125.682 30.408C126.137 29.88 126.701 29.484 127.376 29.22C128.051 28.956 128.784 28.824 129.576 28.824C131.16 28.824 132.377 29.22 133.228 30.012C134.093 30.804 134.526 31.8967 134.526 33.29V36.15C134.526 36.7073 134.555 37.1107 134.614 37.36C134.687 37.6093 134.797 37.7707 134.944 37.844C135.105 37.9027 135.318 37.932 135.582 37.932H135.692V40H135.164C134.431 40 133.815 39.89 133.316 39.67C132.832 39.45 132.495 39.01 132.304 38.35C131.952 38.8927 131.475 39.3473 130.874 39.714C130.273 40.0807 129.539 40.264 128.674 40.264ZM129.158 38.372C129.715 38.372 130.192 38.24 130.588 37.976C130.984 37.6973 131.299 37.338 131.534 36.898C131.783 36.4433 131.937 35.9593 131.996 35.446C131.673 35.358 131.292 35.27 130.852 35.182C130.412 35.094 129.965 35.05 129.51 35.05C128.733 35.05 128.146 35.2113 127.75 35.534C127.354 35.8567 127.156 36.282 127.156 36.81C127.156 37.2647 127.332 37.6387 127.684 37.932C128.036 38.2253 128.527 38.372 129.158 38.372ZM137.291 40V24.16H139.711V40H137.291Z" fill="#111553" style="fill:#111553;fill:color(display-p3 0.0667 0.0824 0.3255);fill-opacity:1;"/>
</svg>
