<svg width="16" height="17" viewBox="0 0 16 17" fill="none" xmlns="http://www.w3.org/2000/svg">
<path d="M5 12.5001C5 14.1569 6.34315 15.5001 8 15.5001C9.65685 15.5001 11 14.1569 11 12.5001C11 10.8432 9.65685 9.50005 8 9.50005C6.34315 9.50005 5 10.8432 5 12.5001ZM6 12.5001C6 11.3973 6.8972 10.5001 8 10.5001C9.1028 10.5001 10 11.3973 10 12.5001C10 13.6029 9.1028 14.5001 8 14.5001C6.8972 14.5001 6 13.6029 6 12.5001Z" fill="#111553" style="fill:#111553;fill:color(display-p3 0.0667 0.0824 0.3255);fill-opacity:1;"/>
<path d="M15 3.00005C15 2.1717 14.3284 1.50005 13.5 1.50005C12.6716 1.50005 12 2.1717 12 3.00005C12 3.65215 12.4187 4.20145 13 4.40825V7.00005C13 7.8609 12.624 8.67195 12 9.2337V8.00005H11V11.0001H14V10.0001H12.6416C13.4885 9.2503 14 8.15925 14 7.00005V4.40825C14.5813 4.20145 15 3.65215 15 3.00005ZM13.5 3.50005C13.2239 3.50005 13 3.27615 13 3.00005C13 2.72395 13.2239 2.50005 13.5 2.50005C13.7761 2.50005 14 2.72395 14 3.00005C14 3.27615 13.7761 3.50005 13.5 3.50005Z" fill="#111553" style="fill:#111553;fill:color(display-p3 0.0667 0.0824 0.3255);fill-opacity:1;"/>
<path d="M9.293 6.293L8.50005 7.08595V4.4082C9.08135 4.2014 9.50005 3.6521 9.50005 3C9.50005 2.17165 8.8284 1.5 8.00005 1.5C7.1717 1.5 6.50005 2.17165 6.50005 3C6.50005 3.6521 6.91875 4.2014 7.50005 4.4082V7.08595L6.7071 6.293L6.00005 7.00005L8.00005 9.00005L10.0001 7.00005L9.293 6.293ZM8.00005 2.50005C8.27615 2.50005 8.50005 2.72395 8.50005 3.00005C8.50005 3.27615 8.27615 3.50005 8.00005 3.50005C7.72395 3.50005 7.50005 3.27615 7.50005 3.00005C7.50005 2.72395 7.72395 2.50005 8.00005 2.50005Z" fill="#111553" style="fill:#111553;fill:color(display-p3 0.0667 0.0824 0.3255);fill-opacity:1;"/>
<path d="M4 8.00005V9.2337C3.376 8.67195 3 7.8609 3 7.00005V4.40825C3.5813 4.20145 4 3.65215 4 3.00005C4 2.1717 3.32835 1.50005 2.5 1.50005C1.67165 1.50005 1 2.1717 1 3.00005C1 3.65215 1.4187 4.20145 2 4.40825V7.00005C2 8.15925 2.51145 9.2503 3.3584 10.0001H2V11.0001H5V8.00005H4ZM2.5 2.50005C2.7761 2.50005 3 2.72395 3 3.00005C3 3.27615 2.7761 3.50005 2.5 3.50005C2.2239 3.50005 2 3.27615 2 3.00005C2 2.72395 2.2239 2.50005 2.5 2.50005Z" fill="#111553" style="fill:#111553;fill:color(display-p3 0.0667 0.0824 0.3255);fill-opacity:1;"/>
</svg>
