<svg width="245" height="90" viewBox="0 0 245 90" fill="none" xmlns="http://www.w3.org/2000/svg">
<path d="M132.714 41.2704C134.552 41.2704 136.013 41.9479 137.208 43.3648L136.059 44.5172C135.13 43.3164 134.054 42.7171 132.809 42.717C131.522 42.717 130.707 43.4348 130.706 44.5407C130.706 45.0693 130.923 45.5514 131.33 45.8402C132.163 46.4397 133.334 46.5835 134.652 47.013C136.733 47.6909 137.685 48.7469 137.685 50.5029C137.685 52.7388 135.992 54.2716 133.216 54.2717C131.258 54.2717 129.504 53.4109 128.476 51.8975L129.862 50.79C130.849 52.1388 132.022 52.8107 133.432 52.8108C134.959 52.8108 135.943 51.9702 135.943 50.6981C135.943 49.0089 134.534 48.8905 132.092 48.147C129.963 47.4956 128.934 46.3652 128.934 44.7123C128.934 42.6677 130.485 41.2705 132.714 41.2704ZM141.518 50.1443C141.518 51.9451 142.043 52.7607 143.526 52.7607C144.767 52.7607 145.912 52.1384 147.066 50.8636V41.486H148.786V54.0592H147.211V52.161C145.866 53.5782 144.553 54.2717 143.046 54.2717C140.99 54.2716 139.795 53.0259 139.795 50.79V41.486H141.518V50.1443ZM187.415 41.2449C189.576 41.2449 191.2 42.4771 191.943 44.6377L190.221 45.1925C189.723 43.6037 188.655 42.7651 187.366 42.7651C185.335 42.7652 184.168 44.4715 184.168 47.7619C184.168 51.1054 185.313 52.7863 187.46 52.7863C188.764 52.7862 189.96 51.9196 190.724 50.2598L192.18 51.0332C191.156 53.2174 189.576 54.2717 187.415 54.2717C184.168 54.2717 182.397 52.0176 182.397 47.7619C182.397 43.6289 184.307 41.2449 187.415 41.2449ZM198.037 41.2704C201.077 41.2704 202.915 43.5356 202.915 47.5933V48.1205H194.957V48.5301C194.957 51.2027 196.341 52.7863 198.354 52.7863C199.905 52.7863 201.17 51.9913 201.915 50.5295L203.18 51.3233C202.199 53.3373 200.572 54.2717 198.185 54.2717C194.958 54.2717 193.165 52.0413 193.165 47.7619C193.165 43.6289 195.072 41.2705 198.037 41.2704ZM163.641 41.2704C166.274 41.2704 167.827 42.6189 167.827 44.9984V52.018C167.827 52.6874 167.927 53.3149 168.094 53.8672V54.0592H166.179L165.984 52.3511C164.841 53.6036 163.522 54.2513 162.018 54.2513C159.986 54.2511 158.572 52.8347 158.572 50.79C158.572 48.0254 160.966 46.6557 166.06 45.6696V44.7562C166.06 43.6292 165.05 42.7875 163.549 42.7875C162.207 42.7876 161.133 43.4591 160.487 44.7562L158.982 43.9399C159.917 42.163 161.493 41.2705 163.641 41.2704ZM114.196 54.0613H112.261V36.6823H114.196V54.0613ZM123.386 41.2704C125.441 41.2704 126.636 42.523 126.636 44.7562V54.0603H124.94V45.406C124.94 43.6038 124.412 42.7875 122.932 42.7875C121.685 42.7876 120.512 43.4141 119.365 44.6847V54.0603H117.643V41.486H119.244V43.3893C120.583 41.9722 121.876 41.2705 123.386 41.2704ZM157.635 41.3409C157.788 41.3409 157.906 41.3411 158.049 41.3634V43.0991H157.834C156.131 43.0994 154.787 44.4716 154.023 47.0631V54.0603H152.258V41.486H154.023V44.3486C154.861 42.3303 155.982 41.341 157.635 41.3409ZM176.87 41.2704C178.927 41.2704 180.125 42.523 180.125 44.7562V54.0603H178.428V45.406C178.428 43.604 177.9 42.7877 176.421 42.7875C175.174 42.7875 174.005 43.4142 172.848 44.6847V54.0603H171.127V41.486H172.727V43.3893C174.075 41.9722 175.366 41.2705 176.87 41.2704ZM166.06 47.3073C162.159 48.0995 160.296 49.0325 160.296 50.8135C160.296 51.9447 161.065 52.6872 162.329 52.6872C163.429 52.687 164.625 52.0413 166.06 50.7665V47.3073ZM198.063 42.7651C196.22 42.7651 195.072 44.1352 194.978 46.632H201.076C201.026 44.1577 199.837 42.7652 198.063 42.7651Z" fill="#111553" style="fill:#111553;fill:color(display-p3 0.0667 0.0824 0.3255);fill-opacity:1;"/>
<path d="M208.195 50.3517V50.8339H206.831V54.3872H206.325V50.8339H204.926V50.3517H208.195ZM209.922 50.3507L211.072 53.764H211.079L212.228 50.3507H213V54.3862H212.474V52.0047C212.474 51.8841 212.487 51.3699 212.487 50.9964H212.474L211.338 54.3862H210.8L209.67 51.0046H209.655C209.655 51.3697 209.67 51.8841 209.67 52.0047V54.3862H209.142V50.3507H209.922Z" fill="#111553" style="fill:#111553;fill:color(display-p3 0.0667 0.0824 0.3255);fill-opacity:1;"/>
<path d="M79.0494 59.765H106.632V30.9998H32.001V31.0008H32V59.766H79.0494V59.765ZM79.0494 31.7231H105.911V59.0396H79.0494V31.7231ZM43.6752 54.3472C40.5927 54.3472 38.511 52.7863 37.5485 49.708L39.3691 49.1052C39.994 51.3425 41.6153 52.6861 43.5792 52.6861C45.8066 52.6859 47.1948 51.4606 47.1948 49.66C47.1947 48.5723 46.8121 47.7802 46.023 47.253C44.8945 46.4858 43.4824 46.0974 42.0038 45.5213C39.3232 44.4669 38.0288 43.2872 38.0287 41.0292C38.0287 38.2409 40.0162 36.3911 43.1001 36.391C45.7837 36.391 47.6954 37.8789 48.5086 40.642L46.7882 41.1477C46.2135 39.0805 44.8451 38.0021 42.909 38.0021C41.0442 38.0022 39.8727 39.1055 39.8727 40.8351C39.8728 41.6775 40.2566 42.3525 40.9986 42.955C41.7378 43.5268 43.029 43.9134 44.6775 44.5395C47.6472 45.668 49.0337 46.8445 49.0337 49.5394C49.0335 52.3986 46.9529 54.3472 43.6752 54.3472ZM63.4367 42.9764H61.3311V41.4818H63.4367V39.7052C63.4367 37.518 64.3917 36.437 66.3515 36.437C66.7825 36.437 67.2835 36.5089 67.8819 36.6525V38.0971C67.356 37.9772 66.9263 37.9265 66.5915 37.9265C65.6333 37.9265 65.1572 38.4819 65.1572 39.5601V41.4818H67.7879V42.9764H65.1572V54.054H63.4367V42.9764ZM85.03 54.2716C87.1809 54.2716 88.7605 53.2172 89.7857 51.03L88.3278 50.2597C87.5635 51.9154 86.3679 52.7862 85.079 52.7862C82.9212 52.7862 81.7741 51.104 81.7741 47.7608C81.7741 44.4675 82.9465 42.7629 84.983 42.7629C86.2731 42.763 87.3233 43.6024 87.8283 45.1883L89.5477 44.6346C88.807 42.4753 87.1809 41.2417 85.03 41.2417C81.9181 41.2418 80.0046 43.625 80.0046 47.7608C80.0047 52.0134 81.7746 54.2716 85.03 54.2716ZM54.1072 54.2481C52.0694 54.2481 50.6593 52.8308 50.6591 50.7889C50.6591 48.0201 53.0502 46.6532 58.1457 45.6685V44.7541C58.1455 43.6258 57.1424 42.7865 55.6376 42.7864C54.2985 42.7864 53.2227 43.4569 52.5727 44.7541L51.0678 43.9368C51.9982 42.1612 53.5831 41.2662 55.7326 41.2662C58.3631 41.2663 59.9131 42.6161 59.9131 44.9942V52.0128C59.9131 52.6851 60.012 53.3123 60.1808 53.866V54.0551H58.2652L58.0772 52.3479C56.9265 53.5963 55.6136 54.2481 54.1072 54.2481ZM73.3619 54.2716C70.1344 54.2716 68.3366 52.0371 68.3365 47.7608C68.3365 43.625 70.2514 41.2663 73.2168 41.2662C76.2521 41.2662 78.0972 43.5269 78.0972 47.5901V48.1163H70.1346V48.528C70.1347 51.1989 71.5199 52.7862 73.5284 52.7862C75.0821 52.7861 76.3509 51.9908 77.0929 50.5263L78.3618 51.316C77.3812 53.333 75.7527 54.2716 73.3619 54.2716ZM95.8879 54.2716C99.138 54.2716 101.106 51.9419 101.106 47.7587C101.106 43.5799 99.1379 41.2662 95.8879 41.2662C92.6366 41.2662 90.6726 43.5799 90.6725 47.7587C90.6725 51.9419 92.6365 54.2716 95.8879 54.2716ZM76.2521 46.6288C76.2046 44.1532 75.0089 42.7629 73.2403 42.7629C71.4008 42.7631 70.2516 44.1296 70.1581 46.6288H76.2521ZM95.8879 52.8056C93.6896 52.8056 92.4471 51.0799 92.4471 47.7587C92.4472 44.467 93.6897 42.7629 95.8879 42.7629C98.0862 42.7629 99.3053 44.4674 99.3053 47.7802C99.3052 51.0803 98.0625 52.8056 95.8879 52.8056ZM54.4188 52.6861C55.5178 52.6859 56.7147 52.0367 58.1457 50.7633V47.301C54.2501 48.0919 52.3808 49.031 52.3806 50.8134C52.3806 51.9419 53.1452 52.6861 54.4188 52.6861Z" fill="#111553" style="fill:#111553;fill:color(display-p3 0.0667 0.0824 0.3255);fill-opacity:1;"/>
</svg>
