<svg width="238" height="64" viewBox="0 0 238 64" fill="none" xmlns="http://www.w3.org/2000/svg">
<g opacity="0.4" clip-path="url(#clip0_4854_388)">
<path fill-rule="evenodd" clip-rule="evenodd" d="M51.3939 24.4847L52.9785 26.1107L52.976 26.1133L42.8178 36.5489C41.7068 37.6912 40.2245 38.3212 38.6476 38.3212C37.0706 38.3212 35.5884 37.6912 34.4773 36.5489C32.1785 34.1857 32.1785 30.3429 34.4773 27.9798L43.2428 18.9741L44.8274 20.6001L36.062 29.6058C34.6361 31.0697 34.6361 33.4538 36.062 34.9202C37.4879 36.3868 39.8098 36.3868 41.2357 34.9202L51.3939 24.4847ZM49.561 22.6391L39.4489 33.0904L37.8745 31.4618L47.9865 21.0105C49.0924 19.8655 50.567 19.2355 52.1363 19.2355C53.7055 19.2355 55.1801 19.8655 56.2861 21.0105L57.0745 21.8235L55.4975 23.4521L54.7091 22.6391C54.023 21.9281 53.1116 21.5386 52.1363 21.5386C51.161 21.5386 50.247 21.9281 49.561 22.6391ZM63.0291 28.0661C61.918 26.9237 60.4358 26.2937 58.8588 26.2937C57.2819 26.2937 55.7996 26.9237 54.6885 28.0661L44.5304 38.5017L46.1125 40.1276L56.2706 29.692C57.6965 28.2255 60.0185 28.2281 61.4444 29.692C62.1331 30.4005 62.5145 31.3441 62.5145 32.3506C62.5145 33.357 62.1356 34.3008 61.4444 35.0091L52.679 44.0148L54.2636 45.6408L63.0291 36.6351C65.3279 34.272 65.3279 30.4292 63.0291 28.0661ZM58.0588 31.5232L58.0601 31.5219H58.0575L58.0588 31.5232ZM58.0588 31.5232L47.9481 41.9733C46.5273 43.4397 44.2181 43.4424 42.7973 41.9733L42.0088 41.1603L40.4319 42.7888L41.2204 43.6018C42.3263 44.7468 43.8008 45.3768 45.3701 45.3768C46.9394 45.3768 48.414 44.7468 49.5199 43.6018L59.6319 33.1506L58.0588 31.5232Z" fill="#111553" style="fill:#111553;fill:color(display-p3 0.0667 0.0824 0.3255);fill-opacity:1;"/>
</g>
<path opacity="0.4" d="M82.7543 40.264C82.0063 40.264 81.2803 40.1687 80.5763 39.978C79.8723 39.7727 79.2343 39.4573 78.6623 39.032C78.0903 38.6067 77.621 38.064 77.2543 37.404C76.8876 36.744 76.6676 35.9593 76.5943 35.05H78.8823C78.985 35.8127 79.227 36.4287 79.6083 36.898C79.9896 37.3527 80.459 37.6827 81.0163 37.888C81.5736 38.0787 82.1603 38.174 82.7763 38.174C83.3923 38.174 83.9496 38.086 84.4483 37.91C84.947 37.7193 85.343 37.4407 85.6363 37.074C85.9296 36.6927 86.0763 36.2233 86.0763 35.666C86.0763 35.1527 85.9296 34.698 85.6363 34.302C85.3576 33.906 84.793 33.6347 83.9423 33.488L81.0823 32.96C79.909 32.74 78.9703 32.256 78.2663 31.508C77.5623 30.76 77.2103 29.8727 77.2103 28.846C77.2103 27.8927 77.4523 27.086 77.9363 26.426C78.435 25.7513 79.0876 25.238 79.8943 24.886C80.7156 24.5193 81.6103 24.336 82.5783 24.336C83.5903 24.336 84.4923 24.512 85.2843 24.864C86.091 25.216 86.7436 25.744 87.2423 26.448C87.7556 27.1373 88.0636 28.0247 88.1663 29.11H85.8343C85.7463 28.45 85.5483 27.922 85.2403 27.526C84.9323 27.13 84.551 26.844 84.0963 26.668C83.6416 26.492 83.143 26.404 82.6003 26.404C82.1016 26.404 81.6103 26.4847 81.1263 26.646C80.6423 26.8073 80.2463 27.064 79.9383 27.416C79.645 27.7533 79.4983 28.2007 79.4983 28.758C79.4983 29.2713 79.689 29.7187 80.0703 30.1C80.4516 30.4667 81.009 30.716 81.7423 30.848L84.4043 31.354C85.6803 31.5887 86.663 32.0507 87.3523 32.74C88.0563 33.4293 88.4083 34.3827 88.4083 35.6C88.4083 36.3773 88.247 37.0593 87.9243 37.646C87.6016 38.218 87.169 38.702 86.6263 39.098C86.0836 39.4793 85.475 39.7727 84.8003 39.978C84.1403 40.1687 83.4583 40.264 82.7543 40.264ZM98.7433 44.84V38.328C98.406 38.8267 97.9293 39.274 97.3133 39.67C96.6973 40.066 95.9126 40.264 94.9593 40.264C93.918 40.264 92.9866 40.0147 92.1653 39.516C91.3586 39.0173 90.7206 38.3353 90.2513 37.47C89.7966 36.59 89.5693 35.6073 89.5693 34.522C89.5693 33.422 89.7966 32.4467 90.2513 31.596C90.7206 30.7307 91.3586 30.056 92.1653 29.572C92.9866 29.0733 93.9253 28.824 94.9813 28.824C95.832 28.824 96.58 28.9927 97.2253 29.33C97.8706 29.6673 98.3766 30.1293 98.7433 30.716V29.088H101.163V44.84H98.7433ZM95.3993 38.152C96.0593 38.152 96.6386 37.998 97.1373 37.69C97.6506 37.382 98.0466 36.9567 98.3253 36.414C98.6186 35.8713 98.7653 35.248 98.7653 34.544C98.7653 33.8253 98.6186 33.1947 98.3253 32.652C98.0466 32.1093 97.6506 31.6913 97.1373 31.398C96.6386 31.09 96.0593 30.936 95.3993 30.936C94.754 30.936 94.1746 31.09 93.6613 31.398C93.1626 31.6913 92.7666 32.1093 92.4733 32.652C92.18 33.1947 92.0333 33.818 92.0333 34.522C92.0333 35.2407 92.18 35.8713 92.4733 36.414C92.7666 36.9567 93.1626 37.382 93.6613 37.69C94.1746 37.998 94.754 38.152 95.3993 38.152ZM107.182 40.264C105.964 40.264 104.989 39.8533 104.256 39.032C103.522 38.196 103.156 36.964 103.156 35.336V29.088H105.576V35.094C105.576 36.1207 105.774 36.898 106.17 37.426C106.58 37.9393 107.152 38.196 107.886 38.196C108.736 38.196 109.404 37.8953 109.888 37.294C110.372 36.6927 110.614 35.8347 110.614 34.72V29.088H113.034V40H110.614V38.306C110.291 38.922 109.836 39.406 109.25 39.758C108.678 40.0953 107.988 40.264 107.182 40.264ZM118.778 40.264C117.927 40.264 117.201 40.1173 116.6 39.824C116.013 39.516 115.566 39.1127 115.258 38.614C114.964 38.1153 114.818 37.5727 114.818 36.986C114.818 35.8273 115.236 34.9327 116.072 34.302C116.908 33.6713 118.008 33.356 119.372 33.356C119.988 33.356 120.538 33.4073 121.022 33.51C121.506 33.598 121.902 33.6933 122.21 33.796V33.29C122.21 32.4393 121.975 31.8087 121.506 31.398C121.051 30.9873 120.442 30.782 119.68 30.782C119.108 30.782 118.602 30.8993 118.162 31.134C117.722 31.3687 117.443 31.7793 117.326 32.366H114.994C115.082 31.574 115.346 30.9213 115.786 30.408C116.24 29.88 116.805 29.484 117.48 29.22C118.154 28.956 118.888 28.824 119.68 28.824C121.264 28.824 122.481 29.22 123.332 30.012C124.197 30.804 124.63 31.8967 124.63 33.29V36.15C124.63 36.7073 124.659 37.1107 124.718 37.36C124.791 37.6093 124.901 37.7707 125.048 37.844C125.209 37.9027 125.422 37.932 125.686 37.932H125.796V40H125.268C124.534 40 123.918 39.89 123.42 39.67C122.936 39.45 122.598 39.01 122.408 38.35C122.056 38.8927 121.579 39.3473 120.978 39.714C120.376 40.0807 119.643 40.264 118.778 40.264ZM119.262 38.372C119.819 38.372 120.296 38.24 120.692 37.976C121.088 37.6973 121.403 37.338 121.638 36.898C121.887 36.4433 122.041 35.9593 122.1 35.446C121.777 35.358 121.396 35.27 120.956 35.182C120.516 35.094 120.068 35.05 119.614 35.05C118.836 35.05 118.25 35.2113 117.854 35.534C117.458 35.8567 117.26 36.282 117.26 36.81C117.26 37.2647 117.436 37.6387 117.788 37.932C118.14 38.2253 118.631 38.372 119.262 38.372ZM127.588 40V29.088H130.008V30.782C130.272 30.2247 130.624 29.792 131.064 29.484C131.504 29.1613 132.017 29 132.604 29H134.122V31.178H132.362C131.863 31.178 131.438 31.3173 131.086 31.596C130.734 31.86 130.462 32.278 130.272 32.85C130.096 33.422 130.008 34.148 130.008 35.028V40H127.588ZM139.909 40.264C138.823 40.264 137.863 40.0293 137.027 39.56C136.205 39.076 135.553 38.4087 135.069 37.558C134.599 36.7073 134.365 35.7173 134.365 34.588C134.365 33.4587 134.599 32.4613 135.069 31.596C135.538 30.716 136.191 30.034 137.027 29.55C137.863 29.066 138.831 28.824 139.931 28.824C141.001 28.824 141.933 29.0587 142.725 29.528C143.531 29.9973 144.155 30.628 144.595 31.42C145.035 32.212 145.255 33.0993 145.255 34.082C145.255 34.2287 145.255 34.39 145.255 34.566C145.255 34.7273 145.24 34.9107 145.211 35.116H136.147V33.488H142.835C142.791 32.6667 142.49 32.014 141.933 31.53C141.39 31.046 140.723 30.804 139.931 30.804C139.359 30.804 138.831 30.936 138.347 31.2C137.863 31.4493 137.474 31.8233 137.181 32.322C136.887 32.806 136.741 33.4293 136.741 34.192V34.808C136.741 35.5413 136.887 36.172 137.181 36.7C137.474 37.2133 137.855 37.602 138.325 37.866C138.809 38.13 139.337 38.262 139.909 38.262C140.554 38.262 141.097 38.1153 141.537 37.822C141.977 37.5287 142.299 37.1327 142.505 36.634H144.947C144.756 37.3233 144.426 37.9467 143.957 38.504C143.502 39.0467 142.93 39.4793 142.241 39.802C141.566 40.11 140.789 40.264 139.909 40.264ZM150.873 40.264C149.494 40.264 148.343 39.9413 147.419 39.296C146.509 38.6507 145.989 37.7413 145.857 36.568H148.343C148.445 37.1107 148.731 37.5433 149.201 37.866C149.67 38.1887 150.257 38.35 150.961 38.35C151.65 38.35 152.178 38.2107 152.545 37.932C152.926 37.6533 153.117 37.3087 153.117 36.898C153.117 36.5607 152.992 36.304 152.743 36.128C152.508 35.952 152.068 35.8127 151.423 35.71C151.173 35.666 150.88 35.622 150.543 35.578C150.205 35.5193 149.912 35.4607 149.663 35.402C149.105 35.2993 148.577 35.1233 148.079 34.874C147.595 34.6247 147.199 34.2873 146.891 33.862C146.583 33.422 146.429 32.872 146.429 32.212C146.429 31.2587 146.788 30.4593 147.507 29.814C148.225 29.154 149.245 28.824 150.565 28.824C151.87 28.824 152.919 29.1173 153.711 29.704C154.517 30.276 154.979 31.134 155.097 32.278H152.721C152.677 31.75 152.449 31.3613 152.039 31.112C151.628 30.8627 151.137 30.738 150.565 30.738C149.963 30.738 149.487 30.8627 149.135 31.112C148.783 31.3613 148.607 31.6693 148.607 32.036C148.607 32.7107 149.142 33.1433 150.213 33.334C150.374 33.3633 150.557 33.4 150.763 33.444C150.983 33.4733 151.203 33.51 151.423 33.554C151.657 33.5833 151.855 33.6127 152.017 33.642C152.398 33.686 152.787 33.774 153.183 33.906C153.579 34.0233 153.945 34.192 154.283 34.412C154.62 34.632 154.891 34.9253 155.097 35.292C155.302 35.6587 155.405 36.1207 155.405 36.678C155.405 37.382 155.221 38.0053 154.855 38.548C154.503 39.076 153.989 39.494 153.315 39.802C152.64 40.11 151.826 40.264 150.873 40.264ZM157.214 44.84V29.088H159.634V30.76C159.986 30.2467 160.47 29.7993 161.086 29.418C161.702 29.022 162.479 28.824 163.418 28.824C164.474 28.824 165.405 29.0733 166.212 29.572C167.019 30.0707 167.649 30.7527 168.104 31.618C168.573 32.4833 168.808 33.466 168.808 34.566C168.808 35.6513 168.573 36.6267 168.104 37.492C167.649 38.3573 167.019 39.0393 166.212 39.538C165.405 40.022 164.474 40.264 163.418 40.264C162.567 40.264 161.819 40.0953 161.174 39.758C160.529 39.4207 160.015 38.9587 159.634 38.372V44.84H157.214ZM162.978 38.152C163.638 38.152 164.217 37.998 164.716 37.69C165.229 37.382 165.625 36.964 165.904 36.436C166.197 35.8933 166.344 35.27 166.344 34.566C166.344 33.8473 166.197 33.2167 165.904 32.674C165.625 32.1167 165.229 31.6913 164.716 31.398C164.217 31.09 163.638 30.936 162.978 30.936C162.318 30.936 161.731 31.09 161.218 31.398C160.719 31.6913 160.323 32.1093 160.03 32.652C159.751 33.1947 159.612 33.8253 159.612 34.544C159.612 35.2627 159.751 35.8933 160.03 36.436C160.323 36.964 160.719 37.382 161.218 37.69C161.731 37.998 162.318 38.152 162.978 38.152ZM173.864 40.264C173.013 40.264 172.287 40.1173 171.686 39.824C171.099 39.516 170.652 39.1127 170.344 38.614C170.05 38.1153 169.904 37.5727 169.904 36.986C169.904 35.8273 170.322 34.9327 171.158 34.302C171.994 33.6713 173.094 33.356 174.458 33.356C175.074 33.356 175.624 33.4073 176.108 33.51C176.592 33.598 176.988 33.6933 177.296 33.796V33.29C177.296 32.4393 177.061 31.8087 176.592 31.398C176.137 30.9873 175.528 30.782 174.766 30.782C174.194 30.782 173.688 30.8993 173.248 31.134C172.808 31.3687 172.529 31.7793 172.412 32.366H170.08C170.168 31.574 170.432 30.9213 170.872 30.408C171.326 29.88 171.891 29.484 172.566 29.22C173.24 28.956 173.974 28.824 174.766 28.824C176.35 28.824 177.567 29.22 178.418 30.012C179.283 30.804 179.716 31.8967 179.716 33.29V36.15C179.716 36.7073 179.745 37.1107 179.804 37.36C179.877 37.6093 179.987 37.7707 180.134 37.844C180.295 37.9027 180.508 37.932 180.772 37.932H180.882V40H180.354C179.62 40 179.004 39.89 178.506 39.67C178.022 39.45 177.684 39.01 177.494 38.35C177.142 38.8927 176.665 39.3473 176.064 39.714C175.462 40.0807 174.729 40.264 173.864 40.264ZM174.348 38.372C174.905 38.372 175.382 38.24 175.778 37.976C176.174 37.6973 176.489 37.338 176.724 36.898C176.973 36.4433 177.127 35.9593 177.186 35.446C176.863 35.358 176.482 35.27 176.042 35.182C175.602 35.094 175.154 35.05 174.7 35.05C173.922 35.05 173.336 35.2113 172.94 35.534C172.544 35.8567 172.346 36.282 172.346 36.81C172.346 37.2647 172.522 37.6387 172.874 37.932C173.226 38.2253 173.717 38.372 174.348 38.372ZM187.433 40.264C186.348 40.264 185.38 40.022 184.529 39.538C183.693 39.054 183.033 38.3867 182.549 37.536C182.065 36.6707 181.823 35.6733 181.823 34.544C181.823 33.4147 182.065 32.4247 182.549 31.574C183.033 30.7087 183.693 30.034 184.529 29.55C185.38 29.066 186.348 28.824 187.433 28.824C188.783 28.824 189.919 29.176 190.843 29.88C191.767 30.584 192.354 31.5447 192.603 32.762H190.095C189.949 32.1753 189.633 31.7207 189.149 31.398C188.665 31.0607 188.086 30.892 187.411 30.892C186.869 30.892 186.355 31.0387 185.871 31.332C185.402 31.6107 185.021 32.0213 184.727 32.564C184.449 33.092 184.309 33.752 184.309 34.544C184.309 35.3213 184.449 35.9887 184.727 36.546C185.021 37.0887 185.402 37.4993 185.871 37.778C186.355 38.0567 186.869 38.196 187.411 38.196C188.086 38.196 188.665 38.0347 189.149 37.712C189.633 37.3893 189.949 36.9273 190.095 36.326H192.603C192.369 37.4993 191.782 38.4527 190.843 39.186C189.919 39.9047 188.783 40.264 187.433 40.264ZM199.442 40.264C198.357 40.264 197.396 40.0293 196.56 39.56C195.739 39.076 195.086 38.4087 194.602 37.558C194.133 36.7073 193.898 35.7173 193.898 34.588C193.898 33.4587 194.133 32.4613 194.602 31.596C195.071 30.716 195.724 30.034 196.56 29.55C197.396 29.066 198.364 28.824 199.464 28.824C200.535 28.824 201.466 29.0587 202.258 29.528C203.065 29.9973 203.688 30.628 204.128 31.42C204.568 32.212 204.788 33.0993 204.788 34.082C204.788 34.2287 204.788 34.39 204.788 34.566C204.788 34.7273 204.773 34.9107 204.744 35.116H195.68V33.488H202.368C202.324 32.6667 202.023 32.014 201.466 31.53C200.923 31.046 200.256 30.804 199.464 30.804C198.892 30.804 198.364 30.936 197.88 31.2C197.396 31.4493 197.007 31.8233 196.714 32.322C196.421 32.806 196.274 33.4293 196.274 34.192V34.808C196.274 35.5413 196.421 36.172 196.714 36.7C197.007 37.2133 197.389 37.602 197.858 37.866C198.342 38.13 198.87 38.262 199.442 38.262C200.087 38.262 200.63 38.1153 201.07 37.822C201.51 37.5287 201.833 37.1327 202.038 36.634H204.48C204.289 37.3233 203.959 37.9467 203.49 38.504C203.035 39.0467 202.463 39.4793 201.774 39.802C201.099 40.11 200.322 40.264 199.442 40.264Z" fill="#111553" style="fill:#111553;fill:color(display-p3 0.0667 0.0824 0.3255);fill-opacity:1;"/>
<defs>
<clipPath id="clip0_4854_388">
<rect width="31.9992" height="32" fill="white" style="fill:white;fill-opacity:1;" transform="translate(32.7539 16)"/>
</clipPath>
</defs>
</svg>
