<svg width="245" height="90" viewBox="0 0 245 90" fill="none" xmlns="http://www.w3.org/2000/svg">
<path d="M180.868 32.1719C180.984 32.1449 181.087 32.0783 181.159 31.9834C181.231 31.8886 181.267 31.7715 181.262 31.6526C181.262 31.1101 180.692 31.1101 180.534 31.1101H179.769V33.2614H180.066V32.2878H180.437C180.789 32.2878 180.873 32.3805 180.9 32.7051C180.914 32.894 180.95 33.0807 181.007 33.2614H181.313C181.245 33.0413 181.201 32.8142 181.183 32.5845C181.16 32.3202 181.09 32.2275 180.859 32.1672L180.868 32.1719ZM180.534 32.0328H180.07V31.3605H180.534C180.692 31.3605 180.961 31.3605 180.961 31.7036C180.961 32.0467 180.682 32.0281 180.534 32.0281V32.0328ZM180.497 30.2014C180.1 30.2005 179.711 30.3176 179.38 30.5378C179.049 30.7581 178.791 31.0715 178.638 31.4386C178.486 31.8056 178.446 32.2096 178.523 32.5995C178.6 32.9893 178.792 33.3475 179.073 33.6285C179.354 33.9095 179.712 34.1008 180.102 34.1782C180.492 34.2555 180.896 34.2153 181.263 34.0628C181.63 33.9103 181.943 33.6522 182.163 33.3214C182.384 32.9906 182.501 32.6018 182.5 32.2043C182.497 31.6739 182.286 31.1658 181.911 30.7908C181.535 30.4157 181.027 30.2039 180.497 30.2014ZM180.497 34.0032C180.145 34.006 179.801 33.9043 179.507 33.7111C179.213 33.5178 178.984 33.2418 178.847 32.9178C178.71 32.5939 178.673 32.2366 178.739 31.8914C178.806 31.5462 178.974 31.2284 179.221 30.9785C179.468 30.7286 179.784 30.5577 180.129 30.4876C180.473 30.4174 180.831 30.4511 181.156 30.5843C181.482 30.7176 181.76 30.9445 181.956 31.2362C182.153 31.5279 182.258 31.8713 182.259 32.2229C182.26 32.4555 182.215 32.686 182.128 32.9013C182.04 33.1167 181.91 33.3126 181.747 33.4779C181.583 33.6433 181.388 33.7747 181.174 33.8649C180.96 33.955 180.73 34.002 180.497 34.0032Z" fill="#111553" style="fill:#111553;fill:color(display-p3 0.0667 0.0824 0.3255);fill-opacity:1;"/>
<path d="M106.51 55.1219H121.495V59.5033H106.51V55.1219ZM125.765 55.1219V59.5033H140.75V55.1219H125.765ZM145.015 55.1219V59.5033H160V55.1219H145.015ZM164.265 55.1219V59.5033H179.241V55.1219H164.265ZM183.515 55.1219V59.5033H198.5V55.1219H183.515Z" fill="#111553" style="fill:#111553;fill:color(display-p3 0.0667 0.0824 0.3255);fill-opacity:1;"/>
<path d="M106.58 49.5026V30.4008H114.118L114.304 33.2939H114.373C115.681 30.5585 117.619 29.8306 119.418 29.8306C121.875 29.8306 123.665 30.934 124.657 33.2939C125.964 30.5585 127.902 29.8306 129.701 29.8306C132.947 29.8306 135.265 31.7315 135.265 36.7851V49.5026H127.522V37.5176C127.522 36.187 126.919 35.4637 126.187 35.4637C125.454 35.4637 124.796 36.0665 124.796 37.5965V49.5026H117.053V37.5176C117.053 36.187 116.45 35.4637 115.709 35.4637C114.967 35.4637 114.318 36.0665 114.318 37.5965V49.5026H106.58ZM170.682 49.5026H178.448L173.125 39.3026L177.46 30.4936H169.37L167.218 36.5208L164.622 30.4936H156.527L161.238 39.3026L156.068 49.5026H163.927L167.218 42.5481L170.686 49.5026H170.682ZM148.103 42.919V41.3287H146.897C144.533 41.3287 144.023 42.4693 144.023 43.5264C144.023 44.7411 144.718 45.4968 146.081 45.4968C147.63 45.4968 148.107 44.4768 148.107 42.919H148.103ZM148.103 37.6706V35.7095C148.103 34.7822 147.639 34.1934 146.378 34.1934C145.279 34.1934 144.686 34.5736 144.579 36.1638H137.226C137.523 31.0638 142.094 29.9511 146.763 29.9511C153.87 29.9511 156.152 32.2693 156.152 36.6924V49.4887H148.339L148.107 47.6898C146.819 49.4331 144.862 50.0775 142.841 50.0775C139.085 50.0775 136.442 48.0375 136.442 44.2821C136.442 39.5901 140.119 37.6521 147.041 37.6521L148.103 37.6706Z" fill="#111553" style="fill:#111553;fill:color(display-p3 0.0667 0.0824 0.3255);fill-opacity:1;"/>
<path d="M58.1806 42.4229H65.2835C65.2835 47.6991 61.0644 50.0034 56.3261 50.0034C49.6126 49.9987 46.5063 45.9187 46.5063 39.8451C46.3301 33.8874 49.8815 29.8584 56.3492 29.8584C61.1711 29.8584 65.2603 31.8196 65.2881 37.4435H58.3336C58.2316 35.2737 57.4388 34.8471 56.5115 34.8471C54.5457 34.8471 54.3602 36.8639 54.3602 39.9471C54.3602 42.868 54.5225 45.0471 56.4281 45.0471C57.4017 45.0471 58.0693 44.4629 58.176 42.4507L58.1806 42.4229ZM94.4277 38.3568H95.0628C96.5233 38.3568 97.5804 37.8468 97.5804 36.4188C97.5804 34.9908 96.6067 34.7219 95.1231 34.7219H94.4277V38.3522V38.3568ZM87.0095 49.4841V30.3869H98.3222C102.421 30.3869 104.813 31.6295 104.813 35.2319C104.813 37.4296 103.886 39.0987 101.021 39.8405C102.875 39.9935 103.881 40.8141 104.266 42.2699C104.683 43.9112 104.869 46.0161 105.226 49.5026H97.8076C97.1121 45.214 97.3996 45.6545 97.1353 44.0178C96.973 43.0674 96.5001 42.6965 95.2807 42.6965H94.3998V49.5026L87.0095 49.4841ZM73.6429 41.7553H76.8883L75.3119 34.5458L73.6429 41.7553ZM64.4629 49.498L70.6153 30.3545H80.4305L86.5829 49.5026H78.7289L77.9871 46.4241H72.507L71.7373 49.498H64.4629Z" fill="#111553" style="fill:#111553;fill:color(display-p3 0.0667 0.0824 0.3255);fill-opacity:1;"/>
</svg>
