<svg width="245" height="90" viewBox="0 0 245 90" fill="none" xmlns="http://www.w3.org/2000/svg">
<path fill-rule="evenodd" clip-rule="evenodd" d="M70.4222 27.6584C69.8576 27.6937 69.4517 28.1878 69.5046 28.7524L72.6632 58.9439C72.7161 59.5086 72.6279 60.4085 72.4691 60.9555L70.9869 65.7551C70.8104 66.3021 71.1104 66.5668 71.6397 66.3374L79.5802 63.0377C80.1096 62.826 80.9919 62.6671 81.5565 62.7024L169.202 68.349C169.767 68.3843 170.278 67.9608 170.331 67.3785L174.496 21.6766C174.548 21.1119 174.125 20.6884 173.56 20.7237L70.4222 27.6584ZM95.4788 48.1272C95.4788 49.4506 94.9495 50.527 93.8908 51.3034C92.8497 52.0798 91.3851 52.468 89.5147 52.468C87.6442 52.468 86.2149 52.0798 85.1915 51.3034C84.1328 50.527 83.6034 49.4506 83.6034 48.1272V47.8978H85.862V48.1272C85.862 48.7801 86.162 49.2742 86.7796 49.6447C87.4148 50.0329 88.3501 50.227 89.5323 50.227C90.7146 50.227 91.6498 50.0329 92.3203 49.6447C92.9555 49.2742 93.2732 48.7625 93.2732 48.1272V47.8096C93.2732 47.0861 92.832 46.5921 91.9497 46.2921L86.7443 44.5452C85.8797 44.2805 85.2092 43.857 84.7504 43.31C84.2916 42.763 84.0445 42.0925 84.0445 41.3337V40.9808C84.0445 38.281 85.8267 36.887 89.3559 36.8517H89.5852C93.1673 36.8517 95.0554 38.1575 95.1612 40.7514V40.9455H92.9202V40.769C92.7791 39.6397 91.7027 39.0751 89.5852 39.0751H89.3911C87.2913 39.1104 86.2679 39.728 86.2679 40.9808V41.3337C86.2679 41.5278 86.3561 41.7219 86.5502 41.916C86.762 42.1278 87.0443 42.2866 87.3796 42.4101L92.6556 44.157C93.5202 44.4393 94.2084 44.8981 94.7201 45.5157C95.2318 46.1333 95.4965 46.9097 95.4965 47.792V48.1096L95.4788 48.1272ZM101.743 43.61H99.3962V46.2392V46.2745V47.5096C99.3962 48.4096 99.6432 49.1154 100.12 49.6447C100.49 50.0506 100.967 50.2976 101.567 50.3859H101.725V52.5563H101.514C100.278 52.4151 99.2726 51.9563 98.5139 51.1799C97.6316 50.2623 97.1728 49.0272 97.1728 47.5273V37.2399H99.3609V41.3866H101.708V43.6276L101.743 43.61ZM112.224 47.3685C112.224 49.2036 111.889 50.5447 111.219 51.3211C110.583 52.0798 109.525 52.4857 108.113 52.521H107.919H107.601C106.172 52.4857 105.131 52.0798 104.478 51.3034C103.808 50.5094 103.472 49.186 103.472 47.3508V41.369H105.625V47.3508C105.625 48.4801 105.784 49.2918 106.119 49.733C106.437 50.1565 107.001 50.3682 107.795 50.3859H107.901C108.695 50.3859 109.26 50.1741 109.578 49.733C109.913 49.2918 110.072 48.4801 110.072 47.3508V41.369H112.224V47.3508V47.3685ZM118.912 43.2218C118.012 43.2218 117.306 43.4512 116.848 43.9276C116.389 44.3864 116.142 45.1804 116.142 46.2568V47.492C116.142 48.3919 116.389 49.0977 116.865 49.6271C117.342 50.1565 118.03 50.4035 118.912 50.4035C119.794 50.4035 120.465 50.1388 120.959 49.6271C121.453 49.0977 121.7 48.3919 121.7 47.492V46.2568C121.7 45.1804 121.471 44.3864 120.994 43.9276C120.518 43.4688 119.83 43.2218 118.912 43.2218ZM116.142 37.2399V42.163C116.83 41.4572 117.748 41.1043 118.912 41.1043C122.229 41.1043 123.906 42.8336 123.906 46.2568V47.492C123.906 48.9919 123.447 50.227 122.565 51.1446C121.665 52.0622 120.447 52.5386 118.912 52.5386C117.377 52.5386 116.177 52.0622 115.295 51.1446C114.413 50.227 113.954 48.9919 113.954 47.492V37.2399H116.142ZM137.105 52.4151H134.828V45.7627H127.894V52.4151H125.617V37.2047H127.894V43.557H134.828V37.2047H137.105V52.4151ZM147.586 47.3685C147.586 49.2036 147.251 50.5447 146.58 51.3211C145.945 52.0798 144.886 52.4857 143.475 52.521H143.281H142.963C141.534 52.4857 140.493 52.0798 139.84 51.3034C139.169 50.5094 138.834 49.186 138.834 47.3508V41.369H140.987V47.3508C140.987 48.4978 141.145 49.2918 141.481 49.733C141.798 50.1565 142.363 50.3682 143.157 50.3859H143.263C144.057 50.3859 144.622 50.1741 144.939 49.733C145.275 49.2918 145.433 48.4801 145.433 47.3508V41.369H147.586V47.3508V47.3685ZM154.274 43.2218C153.374 43.2218 152.668 43.4512 152.209 43.9276C151.75 44.3864 151.503 45.1804 151.503 46.2568V47.492C151.503 48.3919 151.75 49.0977 152.227 49.6271C152.703 50.1565 153.391 50.4035 154.274 50.4035C155.156 50.4035 155.827 50.1388 156.321 49.6271C156.815 49.0977 157.062 48.3743 157.062 47.492V46.2568C157.062 45.1804 156.832 44.3864 156.356 43.9276C155.879 43.4688 155.191 43.2218 154.274 43.2218ZM151.503 37.2399V42.163C152.192 41.4572 153.109 41.1043 154.274 41.1043C157.591 41.1043 159.267 42.8336 159.267 46.2568V47.492C159.267 48.9919 158.809 50.227 157.926 51.1446C157.026 52.0622 155.809 52.5386 154.274 52.5386C152.739 52.5386 151.539 52.0622 150.656 51.1446C149.774 50.227 149.315 48.9919 149.315 47.492V37.2399H151.503Z" fill="#111553" style="fill:#111553;fill:color(display-p3 0.0667 0.0824 0.3255);fill-opacity:1;"/>
</svg>
