<svg width="210" height="64" viewBox="0 0 210 64" fill="none" xmlns="http://www.w3.org/2000/svg">
<g opacity="0.4" clip-path="url(#clip0_4854_400)">
<path d="M48.1825 16C56.9872 16 64.1148 23.1579 64.1148 32C64.1148 40.8421 56.9872 48 48.1825 48C39.3779 48 32.2502 40.8421 32.2502 32C32.2502 23.1579 39.3779 16 48.1825 16ZM51.8961 21.293C51.2373 21.0825 50.5186 21.3533 50.1591 21.9245C49.5302 21.8042 48.9013 21.7448 48.2424 21.7448C42.5823 21.7448 38.0302 26.3459 38.0302 32C38.0302 35.9699 40.2763 39.429 43.5706 41.1133C43.481 41.7747 43.9001 42.4366 44.5588 42.6771C44.7085 42.7372 44.8883 42.7669 45.038 42.7669C45.2776 42.7669 45.5172 42.7063 45.7268 42.5859C45.9662 42.4657 46.1462 42.286 46.2958 42.0456C46.3556 41.9555 46.4155 41.8649 46.4456 41.7448L47.6135 38.2852L51.6864 26.6471L52.8544 23.1875C52.8844 23.0973 52.9143 22.9769 52.9143 22.8568C52.9442 22.5261 52.8543 22.225 52.7047 21.9544C52.5249 21.6538 52.2553 21.4132 51.8961 21.293ZM53.3935 28.4818C54.0821 29.4742 54.4716 30.707 54.4716 32C54.4716 34.7669 52.7346 37.0821 50.3088 37.9544L48.9013 42.2253C54.2021 41.8342 58.3648 37.4136 58.3948 32C58.3948 28.8723 56.987 26.0756 54.801 24.2109L53.3935 28.4818ZM48.1825 25.6849C48.3623 25.6849 48.5718 25.6848 48.7515 25.7148L44.7984 37.3229C43.0616 36.18 41.8935 34.2255 41.8935 32C41.8935 28.5113 44.7086 25.6849 48.1825 25.6849Z" fill="#111553" style="fill:#111553;fill:color(display-p3 0.0667 0.0824 0.3255);fill-opacity:1;"/>
</g>
<path opacity="0.4" d="M82.6588 40.264C81.5588 40.264 80.5614 40.0513 79.6668 39.626C78.7868 39.186 78.0828 38.5187 77.5548 37.624C77.0268 36.7147 76.7628 35.5707 76.7628 34.192V24.6H79.1828V34.214C79.1828 35.534 79.4981 36.5093 80.1288 37.14C80.7741 37.756 81.6321 38.064 82.7028 38.064C83.7881 38.064 84.6461 37.756 85.2768 37.14C85.9074 36.5093 86.2228 35.534 86.2228 34.214V24.6H88.6428V34.192C88.6428 35.5707 88.3714 36.7147 87.8288 37.624C87.3008 38.5187 86.5821 39.186 85.6728 39.626C84.7634 40.0513 83.7588 40.264 82.6588 40.264ZM90.7721 40V29.088H93.1921V30.826C93.5588 30.21 94.0575 29.726 94.6881 29.374C95.3188 29.0073 96.0375 28.824 96.8441 28.824C98.1788 28.824 99.2201 29.242 99.9681 30.078C100.716 30.8993 101.09 32.124 101.09 33.752V40H98.6701V33.994C98.6701 32.9673 98.4575 32.1973 98.0321 31.684C97.6215 31.156 96.9908 30.892 96.1401 30.892C95.2895 30.892 94.5855 31.1927 94.0281 31.794C93.4708 32.3953 93.1921 33.2533 93.1921 34.368V40H90.7721ZM109.48 40.264C108.629 40.264 107.881 40.0953 107.236 39.758C106.59 39.4207 106.077 38.9587 105.696 38.372V40H103.276V24.16H105.696V30.76C106.048 30.2467 106.532 29.7993 107.148 29.418C107.764 29.022 108.541 28.824 109.48 28.824C110.536 28.824 111.467 29.0733 112.274 29.572C113.08 30.0707 113.711 30.7527 114.166 31.618C114.635 32.4833 114.87 33.466 114.87 34.566C114.87 35.6513 114.635 36.6267 114.166 37.492C113.711 38.3573 113.08 39.0393 112.274 39.538C111.467 40.022 110.536 40.264 109.48 40.264ZM109.04 38.152C109.7 38.152 110.279 37.998 110.778 37.69C111.291 37.382 111.687 36.964 111.966 36.436C112.259 35.8933 112.406 35.27 112.406 34.566C112.406 33.8473 112.259 33.2167 111.966 32.674C111.687 32.1167 111.291 31.6913 110.778 31.398C110.279 31.09 109.7 30.936 109.04 30.936C108.38 30.936 107.793 31.09 107.28 31.398C106.781 31.6913 106.385 32.1093 106.092 32.652C105.813 33.1947 105.674 33.8253 105.674 34.544C105.674 35.2627 105.813 35.8933 106.092 36.436C106.385 36.964 106.781 37.382 107.28 37.69C107.793 37.998 108.38 38.152 109.04 38.152ZM121.768 40.264C120.683 40.264 119.707 40.0293 118.842 39.56C117.977 39.076 117.287 38.4013 116.774 37.536C116.275 36.6707 116.026 35.6733 116.026 34.544C116.026 33.4 116.275 32.4027 116.774 31.552C117.287 30.6867 117.977 30.0193 118.842 29.55C119.722 29.066 120.697 28.824 121.768 28.824C122.868 28.824 123.843 29.066 124.694 29.55C125.559 30.0193 126.241 30.6867 126.74 31.552C127.253 32.4027 127.51 33.4 127.51 34.544C127.51 35.6733 127.253 36.6707 126.74 37.536C126.241 38.4013 125.559 39.076 124.694 39.56C123.829 40.0293 122.853 40.264 121.768 40.264ZM121.746 38.174C122.347 38.174 122.89 38.042 123.374 37.778C123.873 37.4993 124.269 37.096 124.562 36.568C124.855 36.0253 125.002 35.3507 125.002 34.544C125.002 33.7373 124.855 33.07 124.562 32.542C124.269 31.9993 123.873 31.596 123.374 31.332C122.89 31.0533 122.362 30.914 121.79 30.914C121.203 30.914 120.661 31.0533 120.162 31.332C119.663 31.596 119.267 31.9993 118.974 32.542C118.681 33.07 118.534 33.7373 118.534 34.544C118.534 35.3507 118.681 36.0253 118.974 36.568C119.267 37.096 119.656 37.4993 120.14 37.778C120.639 38.042 121.174 38.174 121.746 38.174ZM133.058 40.264C131.84 40.264 130.865 39.8533 130.132 39.032C129.398 38.196 129.032 36.964 129.032 35.336V29.088H131.452V35.094C131.452 36.1207 131.65 36.898 132.046 37.426C132.456 37.9393 133.028 38.196 133.762 38.196C134.612 38.196 135.28 37.8953 135.764 37.294C136.248 36.6927 136.49 35.8347 136.49 34.72V29.088H138.91V40H136.49V38.306C136.167 38.922 135.712 39.406 135.126 39.758C134.554 40.0953 133.864 40.264 133.058 40.264ZM141.046 40V29.088H143.466V30.826C143.832 30.21 144.331 29.726 144.962 29.374C145.592 29.0073 146.311 28.824 147.118 28.824C148.452 28.824 149.494 29.242 150.242 30.078C150.99 30.8993 151.364 32.124 151.364 33.752V40H148.944V33.994C148.944 32.9673 148.731 32.1973 148.306 31.684C147.895 31.156 147.264 30.892 146.414 30.892C145.563 30.892 144.859 31.1927 144.302 31.794C143.744 32.3953 143.466 33.2533 143.466 34.368V40H141.046ZM158.653 40.264C157.568 40.264 156.6 40.022 155.749 39.538C154.913 39.054 154.253 38.3867 153.769 37.536C153.285 36.6707 153.043 35.6733 153.043 34.544C153.043 33.4147 153.285 32.4247 153.769 31.574C154.253 30.7087 154.913 30.034 155.749 29.55C156.6 29.066 157.568 28.824 158.653 28.824C160.002 28.824 161.139 29.176 162.063 29.88C162.987 30.584 163.574 31.5447 163.823 32.762H161.315C161.168 32.1753 160.853 31.7207 160.369 31.398C159.885 31.0607 159.306 30.892 158.631 30.892C158.088 30.892 157.575 31.0387 157.091 31.332C156.622 31.6107 156.24 32.0213 155.947 32.564C155.668 33.092 155.529 33.752 155.529 34.544C155.529 35.3213 155.668 35.9887 155.947 36.546C156.24 37.0887 156.622 37.4993 157.091 37.778C157.575 38.0567 158.088 38.196 158.631 38.196C159.306 38.196 159.885 38.0347 160.369 37.712C160.853 37.3893 161.168 36.9273 161.315 36.326H163.823C163.588 37.4993 163.002 38.4527 162.063 39.186C161.139 39.9047 160.002 40.264 158.653 40.264ZM170.662 40.264C169.576 40.264 168.616 40.0293 167.78 39.56C166.958 39.076 166.306 38.4087 165.822 37.558C165.352 36.7073 165.118 35.7173 165.118 34.588C165.118 33.4587 165.352 32.4613 165.822 31.596C166.291 30.716 166.944 30.034 167.78 29.55C168.616 29.066 169.584 28.824 170.684 28.824C171.754 28.824 172.686 29.0587 173.478 29.528C174.284 29.9973 174.908 30.628 175.348 31.42C175.788 32.212 176.008 33.0993 176.008 34.082C176.008 34.2287 176.008 34.39 176.008 34.566C176.008 34.7273 175.993 34.9107 175.964 35.116H166.9V33.488H173.588C173.544 32.6667 173.243 32.014 172.686 31.53C172.143 31.046 171.476 30.804 170.684 30.804C170.112 30.804 169.584 30.936 169.1 31.2C168.616 31.4493 168.227 31.8233 167.934 32.322C167.64 32.806 167.494 33.4293 167.494 34.192V34.808C167.494 35.5413 167.64 36.172 167.934 36.7C168.227 37.2133 168.608 37.602 169.078 37.866C169.562 38.13 170.09 38.262 170.662 38.262C171.307 38.262 171.85 38.1153 172.29 37.822C172.73 37.5287 173.052 37.1327 173.258 36.634H175.7C175.509 37.3233 175.179 37.9467 174.71 38.504C174.255 39.0467 173.683 39.4793 172.994 39.802C172.319 40.11 171.542 40.264 170.662 40.264Z" fill="#111553" style="fill:#111553;fill:color(display-p3 0.0667 0.0824 0.3255);fill-opacity:1;"/>
<defs>
<clipPath id="clip0_4854_400">
<rect width="31.9992" height="32" fill="white" style="fill:white;fill-opacity:1;" transform="translate(32.25 16)"/>
</clipPath>
</defs>
</svg>
