<svg width="233" height="64" viewBox="0 0 233 64" fill="none" xmlns="http://www.w3.org/2000/svg">
<g opacity="0.4" clip-path="url(#clip0_4854_408)">
<path d="M43.772 42.4811L39.3606 45.568L37.5324 44.2412L39.4243 38.5983L38.9786 37.9969L32.9391 37.9527L32.2478 35.8211L37.1413 32.3362V31.5933L32.2933 28.0642L33.0118 25.9326H38.4238L43.772 42.4811Z" fill="#111553" style="fill:#111553;fill:color(display-p3 0.0667 0.0824 0.3255);fill-opacity:1;"/>
<path d="M45.3273 21.0063L47.0555 15.9736H49.3294L51.1666 21.6254L51.8943 21.8465L56.8242 18.3971L58.6524 19.715L56.7605 25.3579L57.2062 25.9505L63.2548 26.0036L63.937 28.1352L59.5529 31.2574L45.3273 21.0063Z" fill="#111553" style="fill:#111553;fill:color(display-p3 0.0667 0.0824 0.3255);fill-opacity:1;"/>
<path d="M39.5431 18.3525L37.6967 19.6616L46.8651 47.9736H49.1389L51.2947 41.747L56.6611 45.5944L58.5075 44.2853L56.5338 38.0498L63.1918 38.0145L63.9104 35.8916L39.5431 18.3525Z" fill="#111553" style="fill:#111553;fill:color(display-p3 0.0667 0.0824 0.3255);fill-opacity:1;"/>
</g>
<path opacity="0.4" d="M83.8399 40.264C82.3146 40.264 80.9946 39.934 79.8799 39.274C78.7653 38.5993 77.9073 37.668 77.3059 36.48C76.7193 35.2773 76.4259 33.8913 76.4259 32.322C76.4259 30.738 76.7193 29.352 77.3059 28.164C77.9073 26.9613 78.7653 26.0227 79.8799 25.348C80.9946 24.6733 82.3146 24.336 83.8399 24.336C85.6586 24.336 87.1399 24.7833 88.2839 25.678C89.4279 26.558 90.1539 27.7973 90.4619 29.396H87.7779C87.5873 28.5013 87.1546 27.7973 86.4799 27.284C85.8199 26.7707 84.9326 26.514 83.8179 26.514C82.8059 26.514 81.9333 26.7487 81.1999 27.218C80.4666 27.6727 79.8946 28.34 79.4839 29.22C79.0879 30.0853 78.8899 31.1193 78.8899 32.322C78.8899 33.5247 79.0879 34.5587 79.4839 35.424C79.8946 36.2747 80.4666 36.9347 81.1999 37.404C81.9333 37.8733 82.8059 38.108 83.8179 38.108C84.9326 38.108 85.8199 37.8587 86.4799 37.36C87.1399 36.8613 87.5799 36.15 87.7999 35.226H90.4839C90.1759 36.8247 89.4426 38.064 88.2839 38.944C87.1399 39.824 85.6586 40.264 83.8399 40.264ZM92.3556 40V24.16H94.7756V40H92.3556ZM97.0178 40V29.088H99.4378V40H97.0178ZM96.9518 27.152V24.534H99.5258V27.152H96.9518ZM106.74 40.264C105.655 40.264 104.687 40.022 103.836 39.538C103 39.054 102.34 38.3867 101.856 37.536C101.372 36.6707 101.13 35.6733 101.13 34.544C101.13 33.4147 101.372 32.4247 101.856 31.574C102.34 30.7087 103 30.034 103.836 29.55C104.687 29.066 105.655 28.824 106.74 28.824C108.089 28.824 109.226 29.176 110.15 29.88C111.074 30.584 111.661 31.5447 111.91 32.762H109.402C109.255 32.1753 108.94 31.7207 108.456 31.398C107.972 31.0607 107.393 30.892 106.718 30.892C106.175 30.892 105.662 31.0387 105.178 31.332C104.709 31.6107 104.327 32.0213 104.034 32.564C103.755 33.092 103.616 33.752 103.616 34.544C103.616 35.3213 103.755 35.9887 104.034 36.546C104.327 37.0887 104.709 37.4993 105.178 37.778C105.662 38.0567 106.175 38.196 106.718 38.196C107.393 38.196 107.972 38.0347 108.456 37.712C108.94 37.3893 109.255 36.9273 109.402 36.326H111.91C111.675 37.4993 111.089 38.4527 110.15 39.186C109.226 39.9047 108.089 40.264 106.74 40.264ZM115.889 36.612L114.943 34.918L120.509 29.088H123.391L115.889 36.612ZM113.667 40V24.16H116.087V40H113.667ZM121.081 40L116.725 34.368L118.221 32.872L124.073 40H121.081ZM125.597 40V24.6H135.321V26.558H128.017V31.31H134.067V33.246H128.017V40H125.597ZM140.033 40.264C138.816 40.264 137.841 39.8533 137.107 39.032C136.374 38.196 136.007 36.964 136.007 35.336V29.088H138.427V35.094C138.427 36.1207 138.625 36.898 139.021 37.426C139.432 37.9393 140.004 38.196 140.737 38.196C141.588 38.196 142.255 37.8953 142.739 37.294C143.223 36.6927 143.465 35.8347 143.465 34.72V29.088H145.885V40H143.465V38.306C143.143 38.922 142.688 39.406 142.101 39.758C141.529 40.0953 140.84 40.264 140.033 40.264ZM148.021 40V29.088H150.441V30.826C150.808 30.21 151.306 29.726 151.937 29.374C152.568 29.0073 153.286 28.824 154.093 28.824C155.428 28.824 156.469 29.242 157.217 30.078C157.965 30.8993 158.339 32.124 158.339 33.752V40H155.919V33.994C155.919 32.9673 155.706 32.1973 155.281 31.684C154.87 31.156 154.24 30.892 153.389 30.892C152.538 30.892 151.834 31.1927 151.277 31.794C150.72 32.3953 150.441 33.2533 150.441 34.368V40H148.021ZM160.547 40V29.088H162.967V30.826C163.333 30.21 163.832 29.726 164.463 29.374C165.093 29.0073 165.812 28.824 166.619 28.824C167.953 28.824 168.995 29.242 169.743 30.078C170.491 30.8993 170.865 32.124 170.865 33.752V40H168.445V33.994C168.445 32.9673 168.232 32.1973 167.807 31.684C167.396 31.156 166.765 30.892 165.915 30.892C165.064 30.892 164.36 31.1927 163.803 31.794C163.245 32.3953 162.967 33.2533 162.967 34.368V40H160.547ZM178.11 40.264C177.025 40.264 176.064 40.0293 175.228 39.56C174.407 39.076 173.754 38.4087 173.27 37.558C172.801 36.7073 172.566 35.7173 172.566 34.588C172.566 33.4587 172.801 32.4613 173.27 31.596C173.739 30.716 174.392 30.034 175.228 29.55C176.064 29.066 177.032 28.824 178.132 28.824C179.203 28.824 180.134 29.0587 180.926 29.528C181.733 29.9973 182.356 30.628 182.796 31.42C183.236 32.212 183.456 33.0993 183.456 34.082C183.456 34.2287 183.456 34.39 183.456 34.566C183.456 34.7273 183.441 34.9107 183.412 35.116H174.348V33.488H181.036C180.992 32.6667 180.691 32.014 180.134 31.53C179.591 31.046 178.924 30.804 178.132 30.804C177.56 30.804 177.032 30.936 176.548 31.2C176.064 31.4493 175.675 31.8233 175.382 32.322C175.089 32.806 174.942 33.4293 174.942 34.192V34.808C174.942 35.5413 175.089 36.172 175.382 36.7C175.675 37.2133 176.057 37.602 176.526 37.866C177.01 38.13 177.538 38.262 178.11 38.262C178.755 38.262 179.298 38.1153 179.738 37.822C180.178 37.5287 180.501 37.1327 180.706 36.634H183.148C182.957 37.3233 182.627 37.9467 182.158 38.504C181.703 39.0467 181.131 39.4793 180.442 39.802C179.767 40.11 178.99 40.264 178.11 40.264ZM185.34 40V24.16H187.76V40H185.34ZM194.402 40.264C193.023 40.264 191.872 39.9413 190.948 39.296C190.039 38.6507 189.518 37.7413 189.386 36.568H191.872C191.975 37.1107 192.261 37.5433 192.73 37.866C193.199 38.1887 193.786 38.35 194.49 38.35C195.179 38.35 195.707 38.2107 196.074 37.932C196.455 37.6533 196.646 37.3087 196.646 36.898C196.646 36.5607 196.521 36.304 196.272 36.128C196.037 35.952 195.597 35.8127 194.952 35.71C194.703 35.666 194.409 35.622 194.072 35.578C193.735 35.5193 193.441 35.4607 193.192 35.402C192.635 35.2993 192.107 35.1233 191.608 34.874C191.124 34.6247 190.728 34.2873 190.42 33.862C190.112 33.422 189.958 32.872 189.958 32.212C189.958 31.2587 190.317 30.4593 191.036 29.814C191.755 29.154 192.774 28.824 194.094 28.824C195.399 28.824 196.448 29.1173 197.24 29.704C198.047 30.276 198.509 31.134 198.626 32.278H196.25C196.206 31.75 195.979 31.3613 195.568 31.112C195.157 30.8627 194.666 30.738 194.094 30.738C193.493 30.738 193.016 30.8627 192.664 31.112C192.312 31.3613 192.136 31.6693 192.136 32.036C192.136 32.7107 192.671 33.1433 193.742 33.334C193.903 33.3633 194.087 33.4 194.292 33.444C194.512 33.4733 194.732 33.51 194.952 33.554C195.187 33.5833 195.385 33.6127 195.546 33.642C195.927 33.686 196.316 33.774 196.712 33.906C197.108 34.0233 197.475 34.192 197.812 34.412C198.149 34.632 198.421 34.9253 198.626 35.292C198.831 35.6587 198.934 36.1207 198.934 36.678C198.934 37.382 198.751 38.0053 198.384 38.548C198.032 39.076 197.519 39.494 196.844 39.802C196.169 40.11 195.355 40.264 194.402 40.264Z" fill="#111553" style="fill:#111553;fill:color(display-p3 0.0667 0.0824 0.3255);fill-opacity:1;"/>
<defs>
<clipPath id="clip0_4854_408">
<rect width="31.9992" height="32" fill="white" style="fill:white;fill-opacity:1;" transform="translate(32.248 16)"/>
</clipPath>
</defs>
</svg>
