<svg viewBox="0 0 1028 159" fill="none" xmlns="http://www.w3.org/2000/svg">
<path d="M63.2017 0.296875C64.566 -0.0992005 66.8549 -0.0992005 68.2192 0.296875L128.866 17.373C130.23 17.7251 131.374 19.2216 131.375 20.6738V52.2734C131.375 53.6817 130.23 54.87 128.778 54.8701H114.386C112.978 54.8701 111.79 53.7258 111.79 52.2734V34.8018C111.789 33.3495 110.645 31.8531 109.281 31.457L68.2192 19.8379C66.8549 19.4418 64.566 19.4418 63.2017 19.8379L22.1401 31.457C20.7759 31.8531 19.6314 33.3495 19.6313 34.8018V105.967C19.6314 107.419 20.6433 109.18 21.8755 109.928L63.4653 135.014C64.6976 135.762 66.7223 135.762 67.9546 135.014L109.545 109.928C110.778 109.179 111.789 107.419 111.79 105.967V87.1299C111.789 85.7217 110.645 84.5332 109.193 84.5332H68.3511C66.9427 84.5332 65.7544 83.3889 65.7544 81.9365V67.5449C65.7547 66.1369 66.8989 64.9492 68.3511 64.9492H128.822C130.23 64.9493 131.418 66.0929 131.418 67.5449V117.058C131.418 118.51 130.406 120.27 129.173 121.019L67.9546 157.943C66.7223 158.691 64.6975 158.691 63.4653 157.943L2.24658 121.019C1.01448 120.27 0.00256073 118.51 0.00244141 117.058V20.6738C0.00264311 19.2656 1.14702 17.7691 2.51123 17.373L63.2017 0.296875ZM1016.99 118.901C1023.2 118.901 1028 123.566 1028 129.64C1028 135.713 1023.11 140.511 1016.99 140.511C1010.88 140.511 1005.95 135.581 1005.95 129.64C1005.95 123.698 1010.83 118.901 1016.99 118.901ZM1016.99 121.058C1012.2 121.058 1008.68 124.843 1008.68 129.64C1008.68 134.437 1012.2 138.222 1017.04 138.222V138.178C1021.75 138.178 1025.22 134.437 1025.22 129.684C1025.22 124.931 1021.79 121.058 1016.99 121.058ZM594.144 19.5342C613.596 19.5343 626.667 25.9158 636.129 37.4902L619.802 51.5303C613.597 44.8408 604.75 40.7472 594.144 40.7471C572.095 40.7471 558.231 58.0434 558.231 78.9482C558.231 99.8533 572.095 117.149 594.144 117.149C612.276 117.149 623.719 108.655 626.316 90.875L588.73 91.1836V70.5869L588.774 70.6748H648.365C648.893 74.0636 649.201 79.7847 649.201 83.3936C649.201 115.081 628.076 138.098 594.144 138.099C560.212 138.099 534.553 111.824 534.553 78.9922C534.554 46.1605 560.168 19.5342 594.144 19.5342ZM240.349 19.4873C258.965 19.4874 271.86 25.2087 282.159 37.4434L266.007 51.4834C259.142 44.3098 250.647 40.7003 240.349 40.7002C218.3 40.7002 204.436 57.9965 204.436 78.9014C204.436 99.7936 218.326 116.773 240.835 116.794C251.947 116.784 260.251 113.044 266.931 105.704L283.611 119.92C274.985 130.394 260.286 138.052 240.349 138.052C206.417 138.052 180.758 111.777 180.758 78.9453C180.759 46.1136 205.053 19.4873 240.349 19.4873ZM403.181 48.8857C418.717 48.7097 431.304 54.7832 438.478 64.7295L421.49 78.5928C417.573 72.6955 411.059 68.9541 403.534 68.9541C389.494 68.9541 380.34 80.2216 380.34 93.4688C380.341 106.716 389.979 117.982 404.018 117.982C412.512 117.982 418.057 113.757 422.458 107.859L438.478 121.724C430.468 132.022 418.717 138.051 402.038 138.051C377.7 138.051 358.247 118.115 358.247 93.4688C358.247 68.823 377.215 49.0619 403.181 48.8857ZM789.514 49.1914C804.214 49.1915 811.872 55.2209 816.449 64.375V50.9961H838.322V135.893H816.932V122.029C812.399 131.667 804.698 138.049 789.514 138.049C766.145 138.049 747.528 118.288 747.528 93.7744C747.528 69.2606 766.145 49.1914 789.514 49.1914ZM989.845 135.89H968.457V122.026C963.923 131.665 956.221 138.046 941.038 138.046C917.668 138.046 899.051 118.285 899.051 93.7715C899.051 69.2577 917.668 49.1885 941.038 49.1885C955.558 49.1885 963.213 55.0489 967.795 63.9785V16.709H989.845V135.89ZM681.021 97.5586C681.021 112.258 687.05 118.639 698.008 118.64C707.339 118.64 715.657 112.258 715.657 97.5586V50.9951H737.707V135.892H716.317V123.173C712.224 132.987 704.566 137.872 691.319 137.872C673.01 137.872 658.971 124.317 658.971 102.928V50.9951H681.021V97.5586ZM872.825 67.1924C875.729 54.9575 884.4 48.2234 899.099 49.0596V69.7891H895.974C883.255 69.7891 873.441 78.2829 873.441 92.498V135.937H851.391V50.9961H872.781V67.1484L872.825 67.1924ZM348.48 135.936H326.43V50.9951H348.48V135.936ZM313.404 135.934H291.354V16.709H313.404V135.934ZM469.208 85.2773L501.072 50.9932H532.408L492.402 90.5146L532.583 135.934H503.316L469.208 95.5762V135.934H447.159V16.709H469.208V85.2773ZM1016.92 124.141C1018.94 124.141 1019.87 124.493 1020.66 124.933C1021.28 125.417 1021.72 126.253 1021.72 127.31C1021.72 128.498 1020.79 129.422 1019.47 129.818V129.906L1019.66 129.985C1020.6 130.404 1021.16 131.186 1021.45 132.547C1021.8 134.175 1021.98 134.835 1022.24 135.231H1019.56C1019.25 134.835 1019.03 133.823 1018.72 132.591C1018.5 131.403 1017.84 130.874 1016.48 130.874H1015.29V135.188H1012.78V124.448C1013.79 124.272 1015.16 124.141 1016.92 124.141ZM1016.7 125.989C1016.04 125.989 1015.6 126.077 1015.33 126.121V129.202H1016.48C1017.89 129.202 1018.99 128.717 1018.99 127.617C1018.99 126.649 1018.28 125.989 1016.7 125.989ZM64.1255 31.543C64.9617 31.2789 66.3703 31.2789 67.2505 31.543L98.7622 40.4326C99.6422 40.6526 100.346 41.6209 100.346 42.501V53.2842C100.346 54.1643 99.5984 54.9121 98.7183 54.9121H82.3901C81.4659 54.9121 80.0574 54.7367 79.1772 54.4727L67.2505 51.084C66.4143 50.8199 65.0057 50.8199 64.1255 51.084L52.1987 54.4727C51.3187 54.6928 50.6148 55.6609 50.6147 56.541V92.8057C50.6148 93.6858 51.2308 94.7864 52.0229 95.2705L64.3022 102.62C65.0945 103.104 66.3266 103.104 67.1187 102.62L79.3979 95.2705C80.1901 94.8305 81.554 94.4336 82.4341 94.4336H98.7622C99.6423 94.4336 100.39 95.1824 100.39 96.0625V100.552C100.39 101.432 99.774 102.532 98.9819 103.016L67.1187 122.205C66.3266 122.689 65.0505 122.689 64.3022 122.205L32.438 103.016C31.6461 102.575 31.0299 101.432 31.0298 100.552V42.501C31.0301 41.621 31.7339 40.6967 32.6138 40.4326L64.1255 31.543ZM793.079 69.084C779.039 69.0841 769.577 80.6596 769.577 93.5986C769.577 106.538 779.039 118.112 793.079 118.112V118.068C807.602 118.068 816.932 106.934 816.932 93.7305C816.932 80.5274 807.118 69.084 793.079 69.084ZM944.646 69.082C930.607 69.0822 921.145 80.6567 921.145 93.5957C921.145 106.535 930.607 118.109 944.646 118.109V118.065C959.169 118.065 968.5 106.931 968.5 93.7275C968.5 80.5245 958.685 69.082 944.646 69.082ZM337.386 17.9863C345.088 17.9863 350.633 23.5322 350.633 30.8818C350.633 38.2314 344.912 43.9521 337.386 43.9521C329.861 43.9521 324.139 37.8793 324.139 30.8818C324.139 23.8843 329.861 17.9864 337.386 17.9863Z" fill="#04020A" style="fill:#04020A;fill:color(display-p3 0.0157 0.0078 0.0392);fill-opacity:1;"></path>
<path d="M63.2017 0.296875C64.566 -0.099221 66.8549 -0.099221 68.2192 0.296875L128.866 17.373C130.23 17.7251 131.374 19.2215 131.375 20.6738V52.2734C131.375 53.6817 130.23 54.87 128.778 54.8701H114.386C112.978 54.8701 111.79 53.7258 111.79 52.2734V34.8018C111.79 33.3494 110.645 31.8531 109.281 31.457L68.2192 19.8379C66.8549 19.4418 64.566 19.4418 63.2017 19.8379L22.1401 31.457C20.7758 31.8531 19.6313 33.3494 19.6313 34.8018V105.967C19.6314 107.419 20.6433 109.18 21.8755 109.928L63.4653 135.014C64.6976 135.762 66.7223 135.762 67.9546 135.014L109.545 109.928C110.778 109.179 111.789 107.419 111.79 105.967V87.1299C111.789 85.7216 110.645 84.5332 109.193 84.5332H68.3511C66.9427 84.5332 65.7544 83.3889 65.7544 81.9365V67.5449C65.7546 66.1368 66.8989 64.9492 68.3511 64.9492H128.822C130.23 64.9493 131.418 66.0928 131.418 67.5449V117.058C131.418 118.51 130.406 120.27 129.173 121.019L67.9546 157.943C66.7223 158.691 64.6975 158.691 63.4653 157.943L2.24658 121.019C1.01444 120.27 0.00256192 118.51 0.00244141 117.058V20.6738C0.00253852 19.2655 1.14696 17.7691 2.51123 17.373L63.2017 0.296875ZM1016.99 118.901C1023.2 118.901 1028 123.566 1028 129.64C1028 135.713 1023.11 140.511 1016.99 140.511C1010.88 140.511 1005.95 135.581 1005.95 129.64C1005.95 123.698 1010.83 118.901 1016.99 118.901ZM1016.99 121.058C1012.2 121.058 1008.68 124.843 1008.68 129.64C1008.68 134.437 1012.2 138.222 1017.04 138.222V138.178C1021.75 138.178 1025.22 134.437 1025.22 129.684C1025.22 124.931 1021.79 121.058 1016.99 121.058ZM594.144 19.5342C613.596 19.5343 626.667 25.9157 636.129 37.4902L619.802 51.5303C613.597 44.8407 604.75 40.7472 594.144 40.7471C572.095 40.7471 558.231 58.0433 558.231 78.9482C558.231 99.8533 572.095 117.149 594.144 117.149C612.276 117.149 623.719 108.655 626.316 90.875L588.73 91.1836V70.5869L588.774 70.6748H648.365C648.893 74.0636 649.201 79.7848 649.201 83.3936C649.201 115.081 628.076 138.098 594.144 138.099C560.212 138.099 534.553 111.824 534.553 78.9922C534.553 46.1604 560.168 19.5342 594.144 19.5342ZM240.341 19.4873C258.957 19.4874 271.852 25.2087 282.151 37.4434L266 51.4834C259.134 44.3097 250.64 40.7003 240.341 40.7002C218.292 40.7002 204.428 57.9965 204.428 78.9014C204.428 99.7936 218.319 116.773 240.828 116.794C251.939 116.784 260.243 113.044 266.923 105.704L283.603 119.92C274.977 130.394 260.278 138.052 240.341 138.052C206.409 138.052 180.75 111.777 180.75 78.9453C180.751 46.1135 205.045 19.4873 240.341 19.4873ZM403.181 48.8857C418.717 48.7097 431.304 54.7831 438.478 64.7295L421.49 78.5928C417.573 72.6954 411.059 68.9541 403.534 68.9541C389.494 68.9541 380.34 80.2215 380.34 93.4688C380.341 106.716 389.979 117.982 404.018 117.982C412.512 117.982 418.057 113.757 422.458 107.859L438.478 121.724C430.468 132.022 418.717 138.051 402.038 138.051C377.7 138.051 358.247 118.115 358.247 93.4688C358.247 68.8229 377.215 49.0619 403.181 48.8857ZM789.514 49.1914C804.214 49.1915 811.872 55.2208 816.449 64.375V50.9961H838.322V135.893H816.932V122.029C812.399 131.667 804.698 138.049 789.514 138.049C766.145 138.049 747.528 118.288 747.528 93.7744C747.528 69.2605 766.145 49.1914 789.514 49.1914ZM989.845 135.89H968.457V122.026C963.923 131.665 956.221 138.046 941.038 138.046C917.668 138.046 899.051 118.285 899.051 93.7715C899.051 69.2576 917.668 49.1885 941.038 49.1885C955.559 49.1885 963.214 55.0497 967.796 63.9805V16.709H989.845V135.89ZM681.021 97.5586C681.021 112.258 687.05 118.639 698.008 118.64C707.339 118.64 715.657 112.258 715.657 97.5586V50.9951H737.707V135.892H716.317V123.173C712.224 132.987 704.566 137.872 691.319 137.872C673.011 137.872 658.971 124.317 658.971 102.928V50.9951H681.021V97.5586ZM872.825 67.1924C875.729 54.9574 884.4 48.2234 899.099 49.0596V69.7891H895.974C883.255 69.7891 873.441 78.2828 873.441 92.498V135.937H851.391V50.9961H872.781V67.1484L872.825 67.1924ZM348.472 135.936H326.422V50.9951H348.472V135.936ZM313.396 135.934H291.346V16.709H313.396V135.934ZM469.208 85.2773L501.072 50.9932H532.408L492.402 90.5146L532.583 135.934H503.316L469.208 95.5762V135.934H447.159V16.709H469.208V85.2773ZM1016.91 124.141C1018.94 124.141 1019.86 124.493 1020.65 124.933C1021.27 125.417 1021.71 126.253 1021.71 127.31C1021.71 128.498 1020.78 129.422 1019.46 129.818V129.906L1019.66 129.985C1020.6 130.404 1021.16 131.185 1021.44 132.547C1021.8 134.175 1021.97 134.835 1022.24 135.231H1019.55C1019.24 134.835 1019.02 133.823 1018.72 132.591C1018.5 131.403 1017.84 130.874 1016.47 130.874H1015.28V135.188H1012.77V124.448C1013.79 124.272 1015.15 124.141 1016.91 124.141ZM1016.69 125.989C1016.03 125.989 1015.59 126.077 1015.33 126.121V129.202H1016.47C1017.88 129.202 1018.98 128.717 1018.98 127.617C1018.98 126.649 1018.28 125.989 1016.69 125.989ZM64.1177 31.543C64.9539 31.2789 66.3625 31.2789 67.2427 31.543L98.7544 40.4326C99.6345 40.6526 100.338 41.6209 100.338 42.501V53.2842C100.338 54.1643 99.5906 54.9121 98.7104 54.9121H82.3823C81.4581 54.9121 80.0496 54.7367 79.1694 54.4727L67.2427 51.084C66.4065 50.8199 64.9979 50.8199 64.1177 51.084L52.1909 54.4727C51.3108 54.6928 50.6069 55.6609 50.6069 56.541V92.8057C50.607 93.6859 51.223 94.7864 52.0151 95.2705L64.2944 102.62C65.0866 103.104 66.3188 103.104 67.1108 102.62L79.3901 95.2705C80.1823 94.8305 81.5461 94.4336 82.4263 94.4336H98.7544C99.6346 94.4336 100.382 95.1823 100.382 96.0625V100.552C100.382 101.432 99.7662 102.532 98.9741 103.016L67.1108 122.205C66.3188 122.689 65.0427 122.689 64.2944 122.205L32.4302 103.016C31.6382 102.575 31.0221 101.432 31.022 100.552V42.501C31.0222 41.621 31.726 40.6967 32.606 40.4326L64.1177 31.543ZM793.079 69.084C779.039 69.0841 769.578 80.6596 769.578 93.5986C769.578 106.538 779.039 118.112 793.079 118.112V118.068C807.602 118.068 816.932 106.934 816.932 93.7305C816.932 80.5273 807.118 69.084 793.079 69.084ZM944.646 69.082C930.607 69.0822 921.145 80.6567 921.145 93.5957C921.145 106.535 930.607 118.109 944.646 118.109V118.065C959.17 118.065 968.5 106.931 968.5 93.7275C968.5 80.5244 958.685 69.082 944.646 69.082ZM337.394 17.9863C345.096 17.9863 350.641 23.5321 350.641 30.8818C350.641 38.2314 344.92 43.9521 337.394 43.9521C329.868 43.9521 324.147 37.8793 324.147 30.8818C324.147 23.8842 329.868 17.9864 337.394 17.9863Z" fill="#281D46" style="fill:#281D46;fill:color(display-p3 0.1569 0.1137 0.2745);fill-opacity:1;"></path>
</svg>