<svg width="173" height="64" viewBox="0 0 173 64" fill="none" xmlns="http://www.w3.org/2000/svg">
<path opacity="0.4" fill-rule="evenodd" clip-rule="evenodd" d="M59.7485 32.8807C55.605 32.8807 52.246 36.2397 52.246 40.3836C52.246 44.5271 55.605 47.886 59.7485 47.886C63.8919 47.886 67.2511 44.5271 67.2511 40.3836C67.2511 36.2397 63.8919 32.8807 59.7485 32.8807ZM40.2564 32.8814C36.1129 32.8814 32.7539 36.2397 32.7539 40.3836C32.7539 44.5271 36.1129 47.886 40.2564 47.886C44.4001 47.886 47.7593 44.5271 47.7593 40.3836C47.7593 36.2397 44.4001 32.8814 40.2564 32.8814ZM57.5049 23.5024C57.5049 27.6462 54.146 31.0056 50.0025 31.0056C45.8589 31.0056 42.5 27.6462 42.5 23.5024C42.5 19.3594 45.8589 16 50.0025 16C54.146 16 57.5049 19.3594 57.5049 23.5024Z" fill="#111553" style="fill:#111553;fill:color(display-p3 0.0667 0.0824 0.3255);fill-opacity:1;"/>
<path opacity="0.4" d="M78.8072 39.8857L84.4392 24.4857H87.1232L92.7552 39.8857H90.2032L85.2532 25.8717H86.2872L81.3372 39.8857H78.8072ZM81.4032 36.1677L82.0852 34.2317H89.4772L90.1592 36.1677H81.4032ZM98.1548 40.1497C96.7761 40.1497 95.6248 39.8271 94.7008 39.1817C93.7915 38.5364 93.2708 37.6271 93.1388 36.4537H95.6248C95.7275 36.9964 96.0135 37.4291 96.4828 37.7517C96.9521 38.0744 97.5388 38.2357 98.2428 38.2357C98.9321 38.2357 99.4601 38.0964 99.8268 37.8177C100.208 37.5391 100.399 37.1944 100.399 36.7837C100.399 36.4464 100.274 36.1897 100.025 36.0137C99.7901 35.8377 99.3501 35.6984 98.7048 35.5957C98.4555 35.5517 98.1621 35.5077 97.8248 35.4637C97.4875 35.4051 97.1941 35.3464 96.9448 35.2877C96.3875 35.1851 95.8595 35.0091 95.3608 34.7597C94.8768 34.5104 94.4808 34.1731 94.1728 33.7477C93.8648 33.3077 93.7108 32.7577 93.7108 32.0977C93.7108 31.1444 94.0701 30.3451 94.7888 29.6997C95.5075 29.0397 96.5268 28.7097 97.8468 28.7097C99.1521 28.7097 100.201 29.0031 100.993 29.5897C101.799 30.1617 102.261 31.0197 102.379 32.1637H100.003C99.9588 31.6357 99.7315 31.2471 99.3208 30.9977C98.9101 30.7484 98.4188 30.6237 97.8468 30.6237C97.2455 30.6237 96.7688 30.7484 96.4168 30.9977C96.0648 31.2471 95.8888 31.5551 95.8888 31.9217C95.8888 32.5964 96.4241 33.0291 97.4948 33.2197C97.6561 33.2491 97.8395 33.2857 98.0448 33.3297C98.2648 33.3591 98.4848 33.3957 98.7048 33.4397C98.9395 33.4691 99.1375 33.4984 99.2988 33.5277C99.6801 33.5717 100.069 33.6597 100.465 33.7917C100.861 33.9091 101.227 34.0777 101.565 34.2977C101.902 34.5177 102.173 34.8111 102.379 35.1777C102.584 35.5444 102.687 36.0064 102.687 36.5637C102.687 37.2677 102.503 37.8911 102.137 38.4337C101.785 38.9617 101.271 39.3797 100.597 39.6877C99.9221 39.9957 99.1081 40.1497 98.1548 40.1497ZM107.911 40.1497C107.06 40.1497 106.334 40.0031 105.733 39.7097C105.146 39.4017 104.699 38.9984 104.391 38.4997C104.098 38.0011 103.951 37.4584 103.951 36.8717C103.951 35.7131 104.369 34.8184 105.205 34.1877C106.041 33.5571 107.141 33.2417 108.505 33.2417C109.121 33.2417 109.671 33.2931 110.155 33.3957C110.639 33.4837 111.035 33.5791 111.343 33.6817V33.1757C111.343 32.3251 111.108 31.6944 110.639 31.2837C110.184 30.8731 109.576 30.6677 108.813 30.6677C108.241 30.6677 107.735 30.7851 107.295 31.0197C106.855 31.2544 106.576 31.6651 106.459 32.2517H104.127C104.215 31.4597 104.479 30.8071 104.919 30.2937C105.374 29.7657 105.938 29.3697 106.613 29.1057C107.288 28.8417 108.021 28.7097 108.813 28.7097C110.397 28.7097 111.614 29.1057 112.465 29.8977C113.33 30.6897 113.763 31.7824 113.763 33.1757V36.0357C113.763 36.5931 113.792 36.9964 113.851 37.2457C113.924 37.4951 114.034 37.6564 114.181 37.7297C114.342 37.7884 114.555 37.8177 114.819 37.8177H114.929V39.8857H114.401C113.668 39.8857 113.052 39.7757 112.553 39.5557C112.069 39.3357 111.732 38.8957 111.541 38.2357C111.189 38.7784 110.712 39.2331 110.111 39.5997C109.51 39.9664 108.776 40.1497 107.911 40.1497ZM108.395 38.2577C108.952 38.2577 109.429 38.1257 109.825 37.8617C110.221 37.5831 110.536 37.2237 110.771 36.7837C111.02 36.3291 111.174 35.8451 111.233 35.3317C110.91 35.2437 110.529 35.1557 110.089 35.0677C109.649 34.9797 109.202 34.9357 108.747 34.9357C107.97 34.9357 107.383 35.0971 106.987 35.4197C106.591 35.7424 106.393 36.1677 106.393 36.6957C106.393 37.1504 106.569 37.5244 106.921 37.8177C107.273 38.1111 107.764 38.2577 108.395 38.2577ZM116.506 39.8857V28.9737H118.926V30.7117C119.293 30.0957 119.792 29.6117 120.422 29.2597C121.053 28.8931 121.772 28.7097 122.578 28.7097C123.913 28.7097 124.954 29.1277 125.702 29.9637C126.45 30.7851 126.824 32.0097 126.824 33.6377V39.8857H124.404V33.8797C124.404 32.8531 124.192 32.0831 123.766 31.5697C123.356 31.0417 122.725 30.7777 121.874 30.7777C121.024 30.7777 120.32 31.0784 119.762 31.6797C119.205 32.2811 118.926 33.1391 118.926 34.2537V39.8857H116.506ZM132.64 40.1497C131.789 40.1497 131.063 40.0031 130.462 39.7097C129.875 39.4017 129.428 38.9984 129.12 38.4997C128.826 38.0011 128.68 37.4584 128.68 36.8717C128.68 35.7131 129.098 34.8184 129.934 34.1877C130.77 33.5571 131.87 33.2417 133.234 33.2417C133.85 33.2417 134.4 33.2931 134.884 33.3957C135.368 33.4837 135.764 33.5791 136.072 33.6817V33.1757C136.072 32.3251 135.837 31.6944 135.368 31.2837C134.913 30.8731 134.304 30.6677 133.542 30.6677C132.97 30.6677 132.464 30.7851 132.024 31.0197C131.584 31.2544 131.305 31.6651 131.188 32.2517H128.856C128.944 31.4597 129.208 30.8071 129.648 30.2937C130.102 29.7657 130.667 29.3697 131.342 29.1057C132.016 28.8417 132.75 28.7097 133.542 28.7097C135.126 28.7097 136.343 29.1057 137.194 29.8977C138.059 30.6897 138.492 31.7824 138.492 33.1757V36.0357C138.492 36.5931 138.521 36.9964 138.58 37.2457C138.653 37.4951 138.763 37.6564 138.91 37.7297C139.071 37.7884 139.284 37.8177 139.548 37.8177H139.658V39.8857H139.13C138.396 39.8857 137.78 39.7757 137.282 39.5557C136.798 39.3357 136.46 38.8957 136.27 38.2357C135.918 38.7784 135.441 39.2331 134.84 39.5997C134.238 39.9664 133.505 40.1497 132.64 40.1497ZM133.124 38.2577C133.681 38.2577 134.158 38.1257 134.554 37.8617C134.95 37.5831 135.265 37.2237 135.5 36.7837C135.749 36.3291 135.903 35.8451 135.962 35.3317C135.639 35.2437 135.258 35.1557 134.818 35.0677C134.378 34.9797 133.93 34.9357 133.476 34.9357C132.698 34.9357 132.112 35.0971 131.716 35.4197C131.32 35.7424 131.122 36.1677 131.122 36.6957C131.122 37.1504 131.298 37.5244 131.65 37.8177C132.002 38.1111 132.493 38.2577 133.124 38.2577Z" fill="#111553" style="fill:#111553;fill:color(display-p3 0.0667 0.0824 0.3255);fill-opacity:1;"/>
</svg>
