<svg width="16" height="17" viewBox="0 0 16 17" fill="none" xmlns="http://www.w3.org/2000/svg">
<path d="M13.6701 6.52991L2.67006 2.52991C2.58076 2.4977 2.48413 2.49157 2.39148 2.51225C2.29883 2.53293 2.21397 2.57956 2.14684 2.64669C2.07971 2.71382 2.03308 2.79867 2.0124 2.89133C1.99172 2.98398 1.99785 3.08061 2.03006 3.16991L6.03006 14.1699C6.065 14.2665 6.12886 14.3501 6.21296 14.4091C6.29706 14.4682 6.39731 14.4999 6.50006 14.4999C6.6002 14.5 6.69806 14.47 6.78097 14.4139C6.86388 14.3577 6.92801 14.2779 6.96506 14.1849L8.88506 9.38491L13.6851 7.46491C13.7799 7.42893 13.8616 7.36494 13.9192 7.28143C13.9769 7.19793 14.0077 7.09887 14.0077 6.99741C14.0077 6.89595 13.9769 6.79689 13.9192 6.71339C13.8616 6.62989 13.7799 6.56589 13.6851 6.52991H13.6701ZM8.31506 8.52991L8.11506 8.60991L8.03506 8.80991L6.50006 12.5999L3.33506 3.83491L12.1001 6.99991L8.31506 8.52991Z" fill="#111553" style="fill:#111553;fill:color(display-p3 0.0667 0.0824 0.3255);fill-opacity:1;"/>
</svg>
