<svg width="245" height="90" viewBox="0 0 245 90" fill="none" xmlns="http://www.w3.org/2000/svg">
<path d="M104.108 37.784H109.65V59.8148H104.108V37.784ZM71.0327 51.9278C66.9655 51.9278 64.4624 54.9239 59.2777 54.9239C53.6907 54.9239 49.087 50.4297 49.087 44.8779C49.087 39.3262 53.6907 34.7878 59.2777 34.7878C64.8647 34.7878 69.4685 39.3702 69.4685 44.8779C69.4685 46.5964 69.1108 48.4909 68.3957 49.8128C70.5858 49.3281 72.1502 49.24 74.2957 49.8128C74.7872 48.2707 75.0555 46.5964 75.0555 44.8779C75.0555 36.2859 68.0829 29.2802 59.2777 29.2802C50.4726 29.2802 43.5 36.2859 43.5 44.8779C43.5 53.4699 50.562 60.4316 59.2777 60.4316C65.4905 60.4316 67.5019 57.5236 70.7646 57.5236C72.4183 57.5236 73.2229 58.8454 73.5357 60.6078L78.8546 59.33C78.2735 54.7477 75.3236 51.9278 71.0327 51.9278ZM106.879 29.2802C104.957 29.2802 103.527 30.6901 103.527 32.4966C103.527 34.3032 104.957 35.7131 106.879 35.7131C108.801 35.7131 110.231 34.3032 110.231 32.4966C110.231 30.6901 108.801 29.2802 106.879 29.2802ZM94.1406 49.945C94.1406 52.9852 92.5763 55.2324 89.2687 55.2324C86.1848 55.2324 85.1121 53.2496 85.1121 50.1212V37.784H79.525V50.694C79.525 56.9508 82.5197 60.2554 88.1514 60.2554C90.4327 60.2554 93.0555 59.3283 94.4088 57.4336V59.8148H99.683V37.784H94.1406V49.945ZM125.026 55.1442C121.137 55.1442 118.5 52.4565 118.5 48.7993C118.5 45.1422 121.137 42.4546 125.026 42.4546C127.126 42.4546 128.467 43.0273 129.942 44.3051L133.25 40.3396C130.791 38.1806 127.931 37.2553 124.757 37.2553C117.83 37.2553 112.824 42.058 112.824 48.7993C112.824 55.5408 117.83 60.3435 124.757 60.3435C127.931 60.3435 131.104 59.4183 133.563 57.2591L130.344 53.2937C128.825 54.5715 127.126 55.1442 125.026 55.1442ZM192.874 37.3434C190.593 37.3434 187.97 38.2705 186.617 40.1651V37.784H181.343V59.8148H186.886V47.6538C186.886 44.6136 188.449 42.3665 191.757 42.3665C194.842 42.3665 195.913 44.3492 195.913 47.4776V59.8148H201.5V46.9048C201.5 40.648 198.506 37.3434 192.874 37.3434ZM178.169 48.2707C178.169 49.0638 178.169 50.2093 178.08 50.7821H161.423C161.83 53.4152 164.369 55.4086 167.845 55.4086C169.901 55.4086 171.912 54.7477 173.387 53.5139L176.382 57.2591C173.878 59.5064 170.794 60.3435 167.666 60.3435C160.872 60.3435 155.687 56.2017 155.687 48.8435C155.687 42.3665 160.425 37.2553 167.085 37.2553C173.387 37.2553 178.169 41.9699 178.169 48.2707ZM161.467 46.5082H172.641C172.071 43.8381 170.052 42.058 167.129 42.058C164.206 42.058 161.979 43.8451 161.467 46.5082ZM156.447 37.784H149.877L141.384 46.8766V29.7648H135.842V59.8148H141.384V53.9034L143.889 51.1505L150.234 59.7707L150.279 59.8148H156.581L147.581 47.4177L156.447 37.784Z" fill="#111553" style="fill:#111553;fill:color(display-p3 0.0667 0.0824 0.3255);fill-opacity:1;"/>
</svg>
