<svg width="16" height="16" viewBox="0 0 16 16" fill="none" xmlns="http://www.w3.org/2000/svg">
<path d="M14.5003 11.5H12.5003V10.5H13.6914L9.75033 2.618L9.19758 3.7236L8.30303 3.27635L9.30303 1.27635C9.38773 1.107 9.56903 1 9.75028 1C9.93153 1 10.1128 1.107 10.1975 1.27635L14.9475 10.7764C15.0249 10.9314 15.0167 11.1155 14.9256 11.2629C14.8345 11.4103 14.6737 11.5 14.5003 11.5Z" fill="#111553" style="fill:#111553;fill:color(display-p3 0.0667 0.0824 0.3255);fill-opacity:1;"/>
<path d="M7.00033 13.1249C7.34551 13.1249 7.62533 12.8451 7.62533 12.4999C7.62533 12.1548 7.34551 11.8749 7.00033 11.8749C6.65515 11.8749 6.37533 12.1548 6.37533 12.4999C6.37533 12.8451 6.65515 13.1249 7.00033 13.1249Z" fill="#111553" style="fill:#111553;fill:color(display-p3 0.0667 0.0824 0.3255);fill-opacity:1;"/>
<path d="M7.50033 7.49995H6.50033V10.9999H7.50033V7.49995Z" fill="#111553" style="fill:#111553;fill:color(display-p3 0.0667 0.0824 0.3255);fill-opacity:1;"/>
<path d="M12.5003 14.9999H1.50033C1.32538 14.9999 1.16318 14.9085 1.07258 14.7588C0.981977 14.6091 0.976277 14.4229 1.05743 14.2679L6.55748 3.76795C6.64378 3.60315 6.82208 3.49995 7.00033 3.49995C7.17858 3.49995 7.35688 3.60315 7.44318 3.76795L12.9432 14.2679C13.0244 14.4229 13.0186 14.6091 12.928 14.7588C12.8374 14.9085 12.6753 14.9999 12.5003 14.9999ZM2.32663 13.9999H11.674L7.00033 5.07755L2.32663 13.9999Z" fill="#111553" style="fill:#111553;fill:color(display-p3 0.0667 0.0824 0.3255);fill-opacity:1;"/>
</svg>
