<svg width="245" height="90" viewBox="0 0 245 90" fill="none" xmlns="http://www.w3.org/2000/svg">
<path d="M202.516 38.7746C202.516 37.6846 203.4 36.7829 204.508 36.7829C205.616 36.7829 206.5 37.6846 206.5 38.7746C206.5 39.8833 205.617 40.7663 204.508 40.7663C203.4 40.7663 202.516 39.8646 202.516 38.7746ZM202.892 38.7746C202.892 39.6766 203.606 40.4096 204.508 40.4096C205.391 40.4096 206.124 39.6766 206.124 38.7746C206.124 37.8726 205.391 37.1396 204.508 37.1396C203.606 37.1396 202.892 37.8726 202.892 38.7746ZM204.208 39.902H203.738V37.6281H204.64C205.091 37.6281 205.448 37.8539 205.448 38.3425C205.448 38.6804 205.26 38.8871 205.016 39L205.486 39.9024H204.978L204.565 39.0755H204.207L204.208 39.902ZM204.602 38.0793H204.207V38.643H204.602C204.772 38.643 204.959 38.5676 204.959 38.3608C204.959 38.1357 204.772 38.0793 204.602 38.0793ZM109.272 54.4658L101.154 42.2694V54.4658H97.5273V36.7826H101.718L109.385 48.3207V36.7826H113.012V54.4658H109.272ZM121.299 42.1382C117.634 42.1382 114.684 44.8629 114.684 48.471C114.684 52.1165 117.597 54.7474 121.262 54.7474C124.907 54.7474 127.858 52.0413 127.858 48.3955C127.839 44.7875 124.926 42.1379 121.299 42.1379L121.299 42.1382ZM121.262 51.4963C119.608 51.4963 118.274 50.2376 118.274 48.3959C118.274 46.5918 119.589 45.3328 121.224 45.3328C122.878 45.3328 124.212 46.5918 124.212 48.3959C124.23 50.2376 122.915 51.4963 121.262 51.4963ZM136.971 42.4014V45.8591C136.502 45.7653 135.994 45.7653 135.844 45.7653C134.153 45.7653 132.969 46.9492 132.969 49.1853V54.4658H129.511V42.4014H132.856V44.1676H132.893C133.551 42.7961 134.773 42.2698 136.013 42.2698C136.295 42.2698 136.727 42.3259 136.971 42.401L136.971 42.4014ZM147.063 36.7826V43.7919H147.025C145.785 42.3262 144.112 42.1946 143.417 42.1946C139.959 42.1946 137.629 45.3706 137.629 48.4336C137.629 51.6847 139.865 54.71 143.361 54.71C144.169 54.71 145.973 54.5971 147.119 52.9433H147.157V54.4845H150.577V36.7822L147.063 36.7826ZM144.169 51.4966C142.515 51.4966 141.181 50.2376 141.181 48.3959C141.181 46.5918 142.515 45.3515 144.169 45.3515C145.822 45.3515 147.156 46.5918 147.156 48.3959C147.138 50.2376 145.822 51.4966 144.169 51.4966ZM158.056 54.4658L151.648 36.7826H155.613L160.198 50.2189L164.802 36.7822H168.692L162.265 54.4658H158.056ZM176.773 36.7826H170.195V54.4658H173.86V48.2265H176.622C180.324 48.2265 183.086 46.3474 183.086 42.4384C183.086 38.6991 180.306 36.7826 176.773 36.7826ZM176.472 44.8255H173.86V40.24H176.453C177.976 40.24 179.404 40.8224 179.404 42.5513C179.404 44.1864 177.919 44.8255 176.472 44.8255ZM196.673 54.4658L188.537 42.2694V54.4658H184.929V36.7826H189.119L196.786 48.3207V36.7826H200.413V54.4658H196.673Z" fill="#111553" style="fill:#111553;fill:color(display-p3 0.0667 0.0824 0.3255);fill-opacity:1;"/>
<path d="M42.8598 62.8675C40.1163 59.0905 38.5 54.4298 38.5 49.375C38.5 36.6904 48.7604 26.4113 61.426 26.4113C74.0916 26.4113 84.3521 36.6904 84.3521 49.3937C84.3521 54.4301 82.7361 59.0905 79.9923 62.8862L68.9801 44.9588L67.9091 46.7628L68.9801 51.7615L61.407 38.795L56.7467 46.7064L57.8367 51.7615L53.8716 44.9775L42.8598 62.8675Z" fill="#111553" style="fill:#111553;fill:color(display-p3 0.0667 0.0824 0.3255);fill-opacity:1;"/>
</svg>
