<svg width="233" height="64" viewBox="0 0 233 64" fill="none" xmlns="http://www.w3.org/2000/svg">
<g opacity="0.4" clip-path="url(#clip0_4854_415)">
<path opacity="0.3" d="M44.5803 35.1612L50.9863 41.5374L63.7386 28.7553V15.9731" fill="#111553" style="fill:#111553;fill:color(display-p3 0.0667 0.0824 0.3255);fill-opacity:1;"/>
<path opacity="0.5" d="M31.7981 22.3491V47.973L44.5802 35.1908" fill="#111553" style="fill:#111553;fill:color(display-p3 0.0667 0.0824 0.3255);fill-opacity:1;"/>
<path d="M44.5802 35.1613L31.7981 47.9435H63.7683V28.7256L51.016 41.5077" fill="#111553" style="fill:#111553;fill:color(display-p3 0.0667 0.0824 0.3255);fill-opacity:1;"/>
</g>
<path opacity="0.4" d="M76.8803 40V24.6H79.7623L85.5263 37.932L84.4483 38.042L90.1903 24.6H93.0503V40H90.6303V26.712L91.4663 27.152L85.9223 40H84.0303L78.4643 27.152L79.3003 26.712V40H76.8803ZM99.0886 40.264C98.2379 40.264 97.5119 40.1173 96.9106 39.824C96.3239 39.516 95.8766 39.1127 95.5686 38.614C95.2753 38.1153 95.1286 37.5727 95.1286 36.986C95.1286 35.8273 95.5466 34.9327 96.3826 34.302C97.2186 33.6713 98.3186 33.356 99.6826 33.356C100.299 33.356 100.849 33.4073 101.333 33.51C101.817 33.598 102.213 33.6933 102.521 33.796V33.29C102.521 32.4393 102.286 31.8087 101.817 31.398C101.362 30.9873 100.753 30.782 99.9906 30.782C99.4186 30.782 98.9126 30.8993 98.4726 31.134C98.0326 31.3687 97.7539 31.7793 97.6366 32.366H95.3046C95.3926 31.574 95.6566 30.9213 96.0966 30.408C96.5513 29.88 97.1159 29.484 97.7906 29.22C98.4653 28.956 99.1986 28.824 99.9906 28.824C101.575 28.824 102.792 29.22 103.643 30.012C104.508 30.804 104.941 31.8967 104.941 33.29V36.15C104.941 36.7073 104.97 37.1107 105.029 37.36C105.102 37.6093 105.212 37.7707 105.359 37.844C105.52 37.9027 105.733 37.932 105.997 37.932H106.107V40H105.579C104.845 40 104.229 39.89 103.731 39.67C103.247 39.45 102.909 39.01 102.719 38.35C102.367 38.8927 101.89 39.3473 101.289 39.714C100.687 40.0807 99.9539 40.264 99.0886 40.264ZM99.5726 38.372C100.13 38.372 100.607 38.24 101.003 37.976C101.399 37.6973 101.714 37.338 101.949 36.898C102.198 36.4433 102.352 35.9593 102.411 35.446C102.088 35.358 101.707 35.27 101.267 35.182C100.827 35.094 100.379 35.05 99.9246 35.05C99.1473 35.05 98.5606 35.2113 98.1646 35.534C97.7686 35.8567 97.5706 36.282 97.5706 36.81C97.5706 37.2647 97.7466 37.6387 98.0986 37.932C98.4506 38.2253 98.9419 38.372 99.5726 38.372ZM107.899 40V29.088H110.319V30.782C110.583 30.2247 110.935 29.792 111.375 29.484C111.815 29.1613 112.328 29 112.915 29H114.433V31.178H112.673C112.174 31.178 111.749 31.3173 111.397 31.596C111.045 31.86 110.773 32.278 110.583 32.85C110.407 33.422 110.319 34.148 110.319 35.028V40H107.899ZM118.455 36.612L117.509 34.918L123.075 29.088H125.957L118.455 36.612ZM116.233 40V24.16H118.653V40H116.233ZM123.647 40L119.291 34.368L120.787 32.872L126.639 40H123.647ZM132.187 40.264C131.101 40.264 130.141 40.0293 129.305 39.56C128.483 39.076 127.831 38.4087 127.347 37.558C126.877 36.7073 126.643 35.7173 126.643 34.588C126.643 33.4587 126.877 32.4613 127.347 31.596C127.816 30.716 128.469 30.034 129.305 29.55C130.141 29.066 131.109 28.824 132.209 28.824C133.279 28.824 134.211 29.0587 135.003 29.528C135.809 29.9973 136.433 30.628 136.873 31.42C137.313 32.212 137.533 33.0993 137.533 34.082C137.533 34.2287 137.533 34.39 137.533 34.566C137.533 34.7273 137.518 34.9107 137.489 35.116H128.425V33.488H135.113C135.069 32.6667 134.768 32.014 134.211 31.53C133.668 31.046 133.001 30.804 132.209 30.804C131.637 30.804 131.109 30.936 130.625 31.2C130.141 31.4493 129.752 31.8233 129.459 32.322C129.165 32.806 129.019 33.4293 129.019 34.192V34.808C129.019 35.5413 129.165 36.172 129.459 36.7C129.752 37.2133 130.133 37.602 130.603 37.866C131.087 38.13 131.615 38.262 132.187 38.262C132.832 38.262 133.375 38.1153 133.815 37.822C134.255 37.5287 134.577 37.1327 134.783 36.634H137.225C137.034 37.3233 136.704 37.9467 136.235 38.504C135.78 39.0467 135.208 39.4793 134.519 39.802C133.844 40.11 133.067 40.264 132.187 40.264ZM143.207 40C142.532 40 141.96 39.9193 141.491 39.758C141.022 39.5967 140.67 39.2887 140.435 38.834C140.2 38.3793 140.083 37.7193 140.083 36.854V31.134H138.213V29.088H140.083V26.294H142.503V29.088H145.429V31.134H142.503V36.524C142.503 36.9493 142.54 37.2647 142.613 37.47C142.701 37.6607 142.848 37.7853 143.053 37.844C143.273 37.9027 143.588 37.932 143.999 37.932H145.319V40H143.207ZM146.72 44.84V29.088H149.14V30.76C149.492 30.2467 149.976 29.7993 150.592 29.418C151.208 29.022 151.986 28.824 152.924 28.824C153.98 28.824 154.912 29.0733 155.718 29.572C156.525 30.0707 157.156 30.7527 157.61 31.618C158.08 32.4833 158.314 33.466 158.314 34.566C158.314 35.6513 158.08 36.6267 157.61 37.492C157.156 38.3573 156.525 39.0393 155.718 39.538C154.912 40.022 153.98 40.264 152.924 40.264C152.074 40.264 151.326 40.0953 150.68 39.758C150.035 39.4207 149.522 38.9587 149.14 38.372V44.84H146.72ZM152.484 38.152C153.144 38.152 153.724 37.998 154.222 37.69C154.736 37.382 155.132 36.964 155.41 36.436C155.704 35.8933 155.85 35.27 155.85 34.566C155.85 33.8473 155.704 33.2167 155.41 32.674C155.132 32.1167 154.736 31.6913 154.222 31.398C153.724 31.09 153.144 30.936 152.484 30.936C151.824 30.936 151.238 31.09 150.724 31.398C150.226 31.6913 149.83 32.1093 149.536 32.652C149.258 33.1947 149.118 33.8253 149.118 34.544C149.118 35.2627 149.258 35.8933 149.536 36.436C149.83 36.964 150.226 37.382 150.724 37.69C151.238 37.998 151.824 38.152 152.484 38.152ZM159.999 40V24.16H162.419V40H159.999ZM168.247 40.264C167.396 40.264 166.67 40.1173 166.069 39.824C165.482 39.516 165.035 39.1127 164.727 38.614C164.433 38.1153 164.287 37.5727 164.287 36.986C164.287 35.8273 164.705 34.9327 165.541 34.302C166.377 33.6713 167.477 33.356 168.841 33.356C169.457 33.356 170.007 33.4073 170.491 33.51C170.975 33.598 171.371 33.6933 171.679 33.796V33.29C171.679 32.4393 171.444 31.8087 170.975 31.398C170.52 30.9873 169.911 30.782 169.149 30.782C168.577 30.782 168.071 30.8993 167.631 31.134C167.191 31.3687 166.912 31.7793 166.795 32.366H164.463C164.551 31.574 164.815 30.9213 165.255 30.408C165.709 29.88 166.274 29.484 166.949 29.22C167.623 28.956 168.357 28.824 169.149 28.824C170.733 28.824 171.95 29.22 172.801 30.012C173.666 30.804 174.099 31.8967 174.099 33.29V36.15C174.099 36.7073 174.128 37.1107 174.187 37.36C174.26 37.6093 174.37 37.7707 174.517 37.844C174.678 37.9027 174.891 37.932 175.155 37.932H175.265V40H174.737C174.003 40 173.387 39.89 172.889 39.67C172.405 39.45 172.067 39.01 171.877 38.35C171.525 38.8927 171.048 39.3473 170.447 39.714C169.845 40.0807 169.112 40.264 168.247 40.264ZM168.731 38.372C169.288 38.372 169.765 38.24 170.161 37.976C170.557 37.6973 170.872 37.338 171.107 36.898C171.356 36.4433 171.51 35.9593 171.569 35.446C171.246 35.358 170.865 35.27 170.425 35.182C169.985 35.094 169.537 35.05 169.083 35.05C168.305 35.05 167.719 35.2113 167.323 35.534C166.927 35.8567 166.729 36.282 166.729 36.81C166.729 37.2647 166.905 37.6387 167.257 37.932C167.609 38.2253 168.1 38.372 168.731 38.372ZM181.817 40.264C180.731 40.264 179.763 40.022 178.913 39.538C178.077 39.054 177.417 38.3867 176.933 37.536C176.449 36.6707 176.207 35.6733 176.207 34.544C176.207 33.4147 176.449 32.4247 176.933 31.574C177.417 30.7087 178.077 30.034 178.913 29.55C179.763 29.066 180.731 28.824 181.817 28.824C183.166 28.824 184.303 29.176 185.227 29.88C186.151 30.584 186.737 31.5447 186.987 32.762H184.479C184.332 32.1753 184.017 31.7207 183.533 31.398C183.049 31.0607 182.469 30.892 181.795 30.892C181.252 30.892 180.739 31.0387 180.255 31.332C179.785 31.6107 179.404 32.0213 179.111 32.564C178.832 33.092 178.693 33.752 178.693 34.544C178.693 35.3213 178.832 35.9887 179.111 36.546C179.404 37.0887 179.785 37.4993 180.255 37.778C180.739 38.0567 181.252 38.196 181.795 38.196C182.469 38.196 183.049 38.0347 183.533 37.712C184.017 37.3893 184.332 36.9273 184.479 36.326H186.987C186.752 37.4993 186.165 38.4527 185.227 39.186C184.303 39.9047 183.166 40.264 181.817 40.264ZM193.825 40.264C192.74 40.264 191.779 40.0293 190.943 39.56C190.122 39.076 189.469 38.4087 188.985 37.558C188.516 36.7073 188.281 35.7173 188.281 34.588C188.281 33.4587 188.516 32.4613 188.985 31.596C189.455 30.716 190.107 30.034 190.943 29.55C191.779 29.066 192.747 28.824 193.847 28.824C194.918 28.824 195.849 29.0587 196.641 29.528C197.448 29.9973 198.071 30.628 198.511 31.42C198.951 32.212 199.171 33.0993 199.171 34.082C199.171 34.2287 199.171 34.39 199.171 34.566C199.171 34.7273 199.157 34.9107 199.127 35.116H190.063V33.488H196.751C196.707 32.6667 196.407 32.014 195.849 31.53C195.307 31.046 194.639 30.804 193.847 30.804C193.275 30.804 192.747 30.936 192.263 31.2C191.779 31.4493 191.391 31.8233 191.097 32.322C190.804 32.806 190.657 33.4293 190.657 34.192V34.808C190.657 35.5413 190.804 36.172 191.097 36.7C191.391 37.2133 191.772 37.602 192.241 37.866C192.725 38.13 193.253 38.262 193.825 38.262C194.471 38.262 195.013 38.1153 195.453 37.822C195.893 37.5287 196.216 37.1327 196.421 36.634H198.863C198.673 37.3233 198.343 37.9467 197.873 38.504C197.419 39.0467 196.847 39.4793 196.157 39.802C195.483 40.11 194.705 40.264 193.825 40.264Z" fill="#111553" style="fill:#111553;fill:color(display-p3 0.0667 0.0824 0.3255);fill-opacity:1;"/>
<defs>
<clipPath id="clip0_4854_415">
<rect width="31.9992" height="32" fill="white" style="fill:white;fill-opacity:1;" transform="translate(32.2476 16)"/>
</clipPath>
</defs>
</svg>
