<svg width="187" height="64" viewBox="0 0 187 64" fill="none" xmlns="http://www.w3.org/2000/svg">
<g opacity="0.4" clip-path="url(#clip0_4854_404)">
<path d="M62.1553 27.9626H60.2114C59.1647 27.9626 58.2675 27.0654 58.2675 26.0187C58.2675 20.486 53.7815 16 48.2488 16L42.2675 16C36.7348 16 32.2488 20.486 32.2488 26.0187V37.9813C32.2488 43.514 36.7348 48 42.2675 48H54.2301C59.7628 48 64.2488 43.514 64.2488 37.9813V30.0561C64.2488 28.8598 63.3516 27.9626 62.1553 27.9626ZM42.1179 24.0748H49.2955C50.3422 24.0748 51.2394 24.972 51.2394 26.0187C51.2394 27.0654 50.3422 27.9626 49.2955 27.9626H42.1179C41.0712 27.9626 40.174 27.0654 40.174 26.0187C40.174 24.972 41.0712 24.0748 42.1179 24.0748ZM54.3796 39.9252H42.2675C41.2207 39.9252 40.3235 39.028 40.3235 37.9813C40.3235 36.9346 41.2207 36.0374 42.2675 36.0374H54.3796C55.4263 36.0374 56.3235 36.9346 56.3235 37.9813C56.3235 39.028 55.4263 39.9252 54.3796 39.9252Z" fill="#111553" style="fill:#111553;fill:color(display-p3 0.0667 0.0824 0.3255);fill-opacity:1;"/>
</g>
<path opacity="0.4" d="M77.0419 40V24.6H83.0039C84.0746 24.6 84.9693 24.7687 85.6879 25.106C86.4066 25.4433 86.9493 25.9127 87.3159 26.514C87.6826 27.1007 87.8659 27.7753 87.8659 28.538C87.8659 29.3153 87.6973 29.968 87.3599 30.496C87.0226 31.024 86.5753 31.4273 86.0179 31.706C85.4753 31.9847 84.8886 32.1607 84.2579 32.234L84.5879 31.992C85.2773 32.0067 85.8933 32.19 86.4359 32.542C86.9933 32.8793 87.4333 33.334 87.7559 33.906C88.0786 34.478 88.2399 35.1087 88.2399 35.798C88.2399 36.59 88.0419 37.3087 87.6459 37.954C87.2646 38.5847 86.6999 39.0833 85.9519 39.45C85.2039 39.8167 84.2873 40 83.2019 40H77.0419ZM79.4619 38.02H82.8939C83.8033 38.02 84.5073 37.8073 85.0059 37.382C85.5193 36.942 85.7759 36.3333 85.7759 35.556C85.7759 34.7787 85.5119 34.1627 84.9839 33.708C84.4706 33.2533 83.7519 33.026 82.8279 33.026H79.4619V38.02ZM79.4619 31.178H82.6959C83.5613 31.178 84.2286 30.9727 84.6979 30.562C85.1673 30.1513 85.4019 29.5867 85.4019 28.868C85.4019 28.164 85.1746 27.6067 84.7199 27.196C84.2653 26.7707 83.5759 26.558 82.6519 26.558H79.4619V31.178ZM89.9709 40V24.16H92.3909V40H89.9709ZM99.847 40.264C98.7617 40.264 97.7863 40.0293 96.921 39.56C96.0557 39.076 95.3663 38.4013 94.853 37.536C94.3543 36.6707 94.105 35.6733 94.105 34.544C94.105 33.4 94.3543 32.4027 94.853 31.552C95.3663 30.6867 96.0557 30.0193 96.921 29.55C97.801 29.066 98.7763 28.824 99.847 28.824C100.947 28.824 101.922 29.066 102.773 29.55C103.638 30.0193 104.32 30.6867 104.819 31.552C105.332 32.4027 105.589 33.4 105.589 34.544C105.589 35.6733 105.332 36.6707 104.819 37.536C104.32 38.4013 103.638 39.076 102.773 39.56C101.908 40.0293 100.932 40.264 99.847 40.264ZM99.825 38.174C100.426 38.174 100.969 38.042 101.453 37.778C101.952 37.4993 102.348 37.096 102.641 36.568C102.934 36.0253 103.081 35.3507 103.081 34.544C103.081 33.7373 102.934 33.07 102.641 32.542C102.348 31.9993 101.952 31.596 101.453 31.332C100.969 31.0533 100.441 30.914 99.869 30.914C99.2823 30.914 98.7397 31.0533 98.241 31.332C97.7423 31.596 97.3463 31.9993 97.053 32.542C96.7597 33.07 96.613 33.7373 96.613 34.544C96.613 35.3507 96.7597 36.0253 97.053 36.568C97.3463 37.096 97.735 37.4993 98.219 37.778C98.7177 38.042 99.253 38.174 99.825 38.174ZM112.985 45.104C112.031 45.104 111.144 44.9427 110.323 44.62C109.501 44.312 108.812 43.8353 108.255 43.19C107.697 42.5593 107.353 41.76 107.221 40.792H109.619C109.795 41.4667 110.183 42.002 110.785 42.398C111.386 42.8087 112.105 43.014 112.941 43.014C113.557 43.014 114.121 42.882 114.635 42.618C115.148 42.354 115.551 41.958 115.845 41.43C116.153 40.902 116.307 40.2347 116.307 39.428V37.976C116.087 38.3573 115.793 38.7093 115.427 39.032C115.06 39.3547 114.62 39.6187 114.107 39.824C113.593 40.0293 113.007 40.132 112.347 40.132C111.32 40.132 110.389 39.8827 109.553 39.384C108.731 38.8853 108.079 38.2107 107.595 37.36C107.111 36.4947 106.869 35.5267 106.869 34.456C106.869 33.3853 107.111 32.4247 107.595 31.574C108.079 30.7233 108.731 30.056 109.553 29.572C110.389 29.0733 111.327 28.824 112.369 28.824C113.263 28.824 114.048 29.0147 114.723 29.396C115.412 29.7773 115.94 30.2467 116.307 30.804V29.088H118.727V39.34C118.727 40.572 118.47 41.6133 117.957 42.464C117.443 43.3293 116.754 43.982 115.889 44.422C115.023 44.8767 114.055 45.104 112.985 45.104ZM112.809 38.02C113.483 38.02 114.077 37.866 114.591 37.558C115.104 37.25 115.507 36.832 115.801 36.304C116.109 35.7613 116.263 35.1527 116.263 34.478C116.263 33.774 116.109 33.158 115.801 32.63C115.507 32.102 115.104 31.6913 114.591 31.398C114.077 31.09 113.483 30.936 112.809 30.936C112.134 30.936 111.533 31.09 111.005 31.398C110.491 31.6913 110.081 32.102 109.773 32.63C109.479 33.158 109.333 33.7667 109.333 34.456C109.333 35.1453 109.479 35.7613 109.773 36.304C110.081 36.832 110.491 37.25 111.005 37.558C111.533 37.866 112.134 38.02 112.809 38.02ZM126.305 45.104C125.352 45.104 124.464 44.9427 123.643 44.62C122.822 44.312 122.132 43.8353 121.575 43.19C121.018 42.5593 120.673 41.76 120.541 40.792H122.939C123.115 41.4667 123.504 42.002 124.105 42.398C124.706 42.8087 125.425 43.014 126.261 43.014C126.877 43.014 127.442 42.882 127.955 42.618C128.468 42.354 128.872 41.958 129.165 41.43C129.473 40.902 129.627 40.2347 129.627 39.428V37.976C129.407 38.3573 129.114 38.7093 128.747 39.032C128.38 39.3547 127.94 39.6187 127.427 39.824C126.914 40.0293 126.327 40.132 125.667 40.132C124.64 40.132 123.709 39.8827 122.873 39.384C122.052 38.8853 121.399 38.2107 120.915 37.36C120.431 36.4947 120.189 35.5267 120.189 34.456C120.189 33.3853 120.431 32.4247 120.915 31.574C121.399 30.7233 122.052 30.056 122.873 29.572C123.709 29.0733 124.648 28.824 125.689 28.824C126.584 28.824 127.368 29.0147 128.043 29.396C128.732 29.7773 129.26 30.2467 129.627 30.804V29.088H132.047V39.34C132.047 40.572 131.79 41.6133 131.277 42.464C130.764 43.3293 130.074 43.982 129.209 44.422C128.344 44.8767 127.376 45.104 126.305 45.104ZM126.129 38.02C126.804 38.02 127.398 37.866 127.911 37.558C128.424 37.25 128.828 36.832 129.121 36.304C129.429 35.7613 129.583 35.1527 129.583 34.478C129.583 33.774 129.429 33.158 129.121 32.63C128.828 32.102 128.424 31.6913 127.911 31.398C127.398 31.09 126.804 30.936 126.129 30.936C125.454 30.936 124.853 31.09 124.325 31.398C123.812 31.6913 123.401 32.102 123.093 32.63C122.8 33.158 122.653 33.7667 122.653 34.456C122.653 35.1453 122.8 35.7613 123.093 36.304C123.401 36.832 123.812 37.25 124.325 37.558C124.853 37.866 125.454 38.02 126.129 38.02ZM139.288 40.264C138.202 40.264 137.242 40.0293 136.406 39.56C135.584 39.076 134.932 38.4087 134.448 37.558C133.978 36.7073 133.744 35.7173 133.744 34.588C133.744 33.4587 133.978 32.4613 134.448 31.596C134.917 30.716 135.57 30.034 136.406 29.55C137.242 29.066 138.21 28.824 139.31 28.824C140.38 28.824 141.312 29.0587 142.104 29.528C142.91 29.9973 143.534 30.628 143.974 31.42C144.414 32.212 144.634 33.0993 144.634 34.082C144.634 34.2287 144.634 34.39 144.634 34.566C144.634 34.7273 144.619 34.9107 144.59 35.116H135.526V33.488H142.214C142.17 32.6667 141.869 32.014 141.312 31.53C140.769 31.046 140.102 30.804 139.31 30.804C138.738 30.804 138.21 30.936 137.726 31.2C137.242 31.4493 136.853 31.8233 136.56 32.322C136.266 32.806 136.12 33.4293 136.12 34.192V34.808C136.12 35.5413 136.266 36.172 136.56 36.7C136.853 37.2133 137.234 37.602 137.704 37.866C138.188 38.13 138.716 38.262 139.288 38.262C139.933 38.262 140.476 38.1153 140.916 37.822C141.356 37.5287 141.678 37.1327 141.884 36.634H144.326C144.135 37.3233 143.805 37.9467 143.336 38.504C142.881 39.0467 142.309 39.4793 141.62 39.802C140.945 40.11 140.168 40.264 139.288 40.264ZM146.496 40V29.088H148.916V30.782C149.18 30.2247 149.532 29.792 149.972 29.484C150.412 29.1613 150.925 29 151.512 29H153.03V31.178H151.27C150.771 31.178 150.346 31.3173 149.994 31.596C149.642 31.86 149.37 32.278 149.18 32.85C149.004 33.422 148.916 34.148 148.916 35.028V40H146.496Z" fill="#111553" style="fill:#111553;fill:color(display-p3 0.0667 0.0824 0.3255);fill-opacity:1;"/>
<defs>
<clipPath id="clip0_4854_404">
<rect width="31.9992" height="32" fill="white" style="fill:white;fill-opacity:1;" transform="translate(32.249 16)"/>
</clipPath>
</defs>
</svg>
