<svg width="184" height="64" viewBox="0 0 184 64" fill="none" xmlns="http://www.w3.org/2000/svg">
<g opacity="0.4" clip-path="url(#clip0_4854_422)">
<path d="M58.7858 19.9736C56.2893 19.9736 54.2088 21.6334 53.5706 24.1174C52.4203 20.3849 49.476 19.9765 48.2476 19.9765C47.0196 19.9765 44.0763 20.3849 42.9238 24.1166C42.2854 21.6348 40.2046 19.9765 37.7087 19.9765C34.646 19.9765 32.2471 22.1659 32.2471 24.9608C32.2471 26.1967 32.5525 27.1835 32.9215 28.2538L37.0798 40.0132C38.4722 43.9133 41.3088 44.4956 42.8756 44.4956C45.3333 44.4956 47.2485 43.2368 48.2472 41.006C49.2469 43.2469 51.1623 44.512 53.6187 44.512C55.1836 44.512 58.0173 43.9286 59.4168 40.0142L63.5981 28.2148L63.6307 28.1174C63.6785 27.9662 63.7267 27.8243 63.7722 27.6895C63.9949 27.0309 64.2471 26.2842 64.2471 25.3691C64.2471 22.2429 61.9503 19.9736 58.7858 19.9736ZM60.7569 27.208L56.5757 39.0075C56.0653 40.4351 55.2161 41.4977 53.6187 41.4977C52.1221 41.4977 51.2384 40.6638 50.7969 39.2348L48.281 31.3817H48.2126L45.698 39.2348C45.2558 40.664 44.3718 41.4813 42.8756 41.4813C41.2778 41.4813 40.4281 40.4274 39.9184 38.9998L35.7712 27.2717C35.4312 26.2856 35.2614 25.6753 35.2614 24.9606C35.2614 23.8725 36.2817 22.9908 37.7087 22.9908C38.8987 22.9908 39.7484 23.7753 40.0204 24.9311L42.842 34.2856H42.9096L45.7652 25.1371C46.1399 23.8115 46.8194 22.9908 48.2476 22.9908C49.675 22.9908 50.3547 23.8101 50.7285 25.1357L53.5843 34.2856H53.6517L56.4743 24.9311C56.746 23.7753 57.5955 22.9879 58.7858 22.9879C60.2128 22.9879 61.2328 23.8729 61.2328 25.3691C61.2328 25.9127 60.9941 26.4588 60.7569 27.208Z" fill="#111553" style="fill:#111553;fill:color(display-p3 0.0667 0.0824 0.3255);fill-opacity:1;"/>
</g>
<path opacity="0.4" d="M80.3076 40L76.1716 24.6H78.7456L82.0896 38.636H81.3856L85.2356 24.6H87.8976L91.6596 38.658H90.9556L94.2996 24.6H96.8956L92.6716 40H89.8336L86.2476 27.13H86.7756L83.1016 40H80.3076ZM102.122 40.264C101.036 40.264 100.076 40.0293 99.2396 39.56C98.4183 39.076 97.7656 38.4087 97.2816 37.558C96.8123 36.7073 96.5776 35.7173 96.5776 34.588C96.5776 33.4587 96.8123 32.4613 97.2816 31.596C97.751 30.716 98.4036 30.034 99.2396 29.55C100.076 29.066 101.044 28.824 102.144 28.824C103.214 28.824 104.146 29.0587 104.938 29.528C105.744 29.9973 106.368 30.628 106.808 31.42C107.248 32.212 107.468 33.0993 107.468 34.082C107.468 34.2287 107.468 34.39 107.468 34.566C107.468 34.7273 107.453 34.9107 107.424 35.116H98.3596V33.488H105.048C105.004 32.6667 104.703 32.014 104.146 31.53C103.603 31.046 102.936 30.804 102.144 30.804C101.572 30.804 101.044 30.936 100.56 31.2C100.076 31.4493 99.687 31.8233 99.3936 32.322C99.1003 32.806 98.9536 33.4293 98.9536 34.192V34.808C98.9536 35.5413 99.1003 36.172 99.3936 36.7C99.687 37.2133 100.068 37.602 100.538 37.866C101.022 38.13 101.55 38.262 102.122 38.262C102.767 38.262 103.31 38.1153 103.75 37.822C104.19 37.5287 104.512 37.1327 104.718 36.634H107.16C106.969 37.3233 106.639 37.9467 106.17 38.504C105.715 39.0467 105.143 39.4793 104.454 39.802C103.779 40.11 103.002 40.264 102.122 40.264ZM114.368 40.264C113.282 40.264 112.322 40.0293 111.486 39.56C110.664 39.076 110.012 38.4087 109.528 37.558C109.058 36.7073 108.824 35.7173 108.824 34.588C108.824 33.4587 109.058 32.4613 109.528 31.596C109.997 30.716 110.65 30.034 111.486 29.55C112.322 29.066 113.29 28.824 114.39 28.824C115.46 28.824 116.392 29.0587 117.184 29.528C117.99 29.9973 118.614 30.628 119.054 31.42C119.494 32.212 119.714 33.0993 119.714 34.082C119.714 34.2287 119.714 34.39 119.714 34.566C119.714 34.7273 119.699 34.9107 119.67 35.116H110.606V33.488H117.294C117.25 32.6667 116.949 32.014 116.392 31.53C115.849 31.046 115.182 30.804 114.39 30.804C113.818 30.804 113.29 30.936 112.806 31.2C112.322 31.4493 111.933 31.8233 111.64 32.322C111.346 32.806 111.2 33.4293 111.2 34.192V34.808C111.2 35.5413 111.346 36.172 111.64 36.7C111.933 37.2133 112.314 37.602 112.784 37.866C113.268 38.13 113.796 38.262 114.368 38.262C115.013 38.262 115.556 38.1153 115.996 37.822C116.436 37.5287 116.758 37.1327 116.964 36.634H119.406C119.215 37.3233 118.885 37.9467 118.416 38.504C117.961 39.0467 117.389 39.4793 116.7 39.802C116.025 40.11 115.248 40.264 114.368 40.264ZM127.758 40.264C126.907 40.264 126.159 40.0953 125.514 39.758C124.868 39.4207 124.355 38.9587 123.974 38.372V40H121.554V24.16H123.974V30.76C124.326 30.2467 124.81 29.7993 125.426 29.418C126.042 29.022 126.819 28.824 127.758 28.824C128.814 28.824 129.745 29.0733 130.552 29.572C131.358 30.0707 131.989 30.7527 132.444 31.618C132.913 32.4833 133.148 33.466 133.148 34.566C133.148 35.6513 132.913 36.6267 132.444 37.492C131.989 38.3573 131.358 39.0393 130.552 39.538C129.745 40.022 128.814 40.264 127.758 40.264ZM127.318 38.152C127.978 38.152 128.557 37.998 129.056 37.69C129.569 37.382 129.965 36.964 130.244 36.436C130.537 35.8933 130.684 35.27 130.684 34.566C130.684 33.8473 130.537 33.2167 130.244 32.674C129.965 32.1167 129.569 31.6913 129.056 31.398C128.557 31.09 127.978 30.936 127.318 30.936C126.658 30.936 126.071 31.09 125.558 31.398C125.059 31.6913 124.663 32.1093 124.37 32.652C124.091 33.1947 123.952 33.8253 123.952 34.544C123.952 35.2627 124.091 35.8933 124.37 36.436C124.663 36.964 125.059 37.382 125.558 37.69C126.071 37.998 126.658 38.152 127.318 38.152ZM134.832 40V24.16H137.252V40H134.832ZM138.973 44.84V42.882H141.239C141.459 42.882 141.635 42.8527 141.767 42.794C141.913 42.7353 142.053 42.6107 142.185 42.42C142.331 42.2293 142.485 41.9287 142.647 41.518L143.747 39.142L143.571 40.286L138.797 29.088H141.437L144.715 37.096L148.169 29.088H150.721L144.847 42.266C144.597 42.838 144.377 43.2927 144.187 43.63C144.011 43.9673 143.835 44.224 143.659 44.4C143.497 44.576 143.299 44.6933 143.065 44.752C142.83 44.8107 142.537 44.84 142.185 44.84H138.973Z" fill="#111553" style="fill:#111553;fill:color(display-p3 0.0667 0.0824 0.3255);fill-opacity:1;"/>
<defs>
<clipPath id="clip0_4854_422">
<rect width="31.9992" height="32" fill="white" style="fill:white;fill-opacity:1;" transform="translate(32.2471 16)"/>
</clipPath>
</defs>
</svg>
